<?xml version="1.0" encoding="utf-8"?>
<!-- Generator: Adobe Illustrator 21.0.2, SVG Export Plug-In . SVG Version: 6.00 Build 0)  -->
<svg version="1.1" xmlns="http://www.w3.org/2000/svg" xmlns:xlink="http://www.w3.org/1999/xlink" x="0px" y="0px"
	 viewBox="0 0 345 398.4" style="enable-background:new 0 0 345 398.4;" xml:space="preserve">
<style type="text/css">
	.st0{fill:#EFF1C3;}
	.st1{fill:#DAE178;}
</style>
<g id="FrontBG">
	<polygon class="st0" points="10.4,105.6 10.4,292.7 172.5,386.3 334.5,292.7 334.5,105.6 172.5,12.1 	"/>
</g>
<g id="frame">
	<path class="st1" d="M172.5,0L0,99.6v199.2l172.5,99.6L345,298.8V99.6L172.5,0z M334.5,276.9l-11.1,0v-42.7h-42.7V277h-42.7v-42.7
		h-42.7V277h-42.7v-42.7h-42.7V277H66.9v-42.7H24.2V277H10.4c0,0,0,7.5,0,12.1V105.6l162.1-93.6l162.1,93.6V276.9z"/>
</g>
<g id="auk">
	<g>
		<g>
			<path d="M142.8,158.9l-1.1,0.2h-0.1l-1.6,1.1l-5.4,1.3l-0.7,0.3l-1.6,0.6l-0.9,5.7l-0.7,0.9l0.6,2.2l-0.9,5.4l-5-0.5l-2.8-1.8
				l2.2-9.8l0.8-5l0.9-0.9l-0.1-1.6l1.6-9.8l0.2-1.5l0.5-1.7v-1.4l2.4-10.7l1.4-1.7l-0.9-1.2l0.6-3.2l0.7-3.4l0.8-5l6.6-0.3l1.4,0.6
				l-0.1,2.8l0.2,0.6l0.3,0.8l2.6,12.2l-0.6,1.4l1,0.7l3.8,19.3v1.1l2,7.4l0.8,5l-0.5,0.6l1.2,1.3l0.9,3.4l-5.9,1.9h-1l-1.4-0.7
				l-1-10.1l-0.3-2.2l0.6-0.8l-0.7-0.5l-0.6-2.6L142.8,158.9z M134.6,149L134.6,149l-0.9,5.1l-0.1,0.6l5.2-1.6l2.2-0.6l-1.6-8.6
				l-0.3-4.2l-0.3-1.4l-1.2-8.5l-1.6,9.8l-0.8,0.4l0.4,1.3L134.6,149z"/>
			<path d="M160.9,151.6l-0.6-8.7l0.1-5.7l0.6-1.7l-0.4-2.5l-0.5-12.9l1-3l7.2,0.2l-0.1,7.1l-0.2,2.6l-0.8,2.9l0.1,1.4l0.8,1.8
				l-0.6,3l0.1,2.7l0.1,3l0.2,6l-0.6,9.4l0.6,9.4l0.1,1.2l0.9,0.7l0.6,0.1l2.6-1l6.6-2.8l0.3-5.2l0.2-10.2l-0.5-9.8v-6.6l-0.3-10.1
				l0.2-5.7l4-0.1l3.7,0.1l0.5,3.9l-0.2,4.3l-0.9,0.5l0.8,0.9l-0.6,5.2l-0.2,4.4l-0.1,1.1l-0.8,1.4l0.8,0.8l0.4,2.3l-0.2,17.8
				l0.5,9.4l1.1,6.2l-7.8,1.3l-0.6-4.3l-0.2-0.6l-6.1,3.1l-2.6,1.4l-5-0.1l-4.8-4.2l-0.1-4l0.2-3.8l1.1-1.4L161,162L160.9,151.6z"/>
			<path d="M202.4,116.7l3,1l-0.8,19.8l0.2,3.8v2.4l0.2-0.6l1.2-3.1l1.4-2.2l3.2-7.7l1.4-3.4l2.2-2.2l-0.3-2l2.5-5.8l4.9,1.9
				l2.5,1.9l-2.3,4.2l-4.9,8.1l-0.2,0.4l0.2,0.2l-5.8,11l0.4,0.6l4.7,10.8l2.8,6.2l2.7,4.6l-0.4,1.1l1.1,0.2l2.3,5.2l-5.8,3.2
				l-2-0.1l-2.3-5.9l-4.2-9.5l0.4-1l-2.7-4.4l0.1-0.2l-3.2-6.6v13.1l0.3,3.8l0.1,3.9l0.1,0.9l0.3,1.5l-0.1,4.1l-4.2,0.2l-4.2-0.1
				l0.1-8.3l0.2-0.1l-0.1-0.3l1.4-3.2l-1-1.1l0.2-1.3v-0.5l0.5-17.3l-0.7-4.3l-0.4-10.1l0.2-6.4l-0.9-5.7L202.4,116.7z"/>
		</g>
	</g>
	<g>
		<g>
			<path d="M134.7,328.1l-2.5,5.7l-1.3,3.6l-0.7,2l3.4,0.3l4.1-0.4l0.9,0.9l1-1.1l2.7-0.3l1.8,1.4l-0.2,5.7l-2.5,0.7l-11.1-0.9
				l-4.5,0.3l-2.2,0.1l-1.1-5.1l1.5-3.6l8.1-15.8c0.5-1.3,1.3-3.2,1.8-4.5l3.2-6.6l0.6-2.2L135,305v-0.6l-2.7-2.1l-1.2,0.9l-1.6,1.5
				l-0.8,1l-2.5,3.6l-3.7-1.5l-1.8-3l4.5-4.2l1.1,0.1l-0.1-0.9l2.9-2.8l2.2-2.6l4.4,0.6l3,3.9l2,2.9l3.6,3.9l-0.1,3l-5.5,12
				l-0.9,1.8l-1.3,1.6l-1.5,0.6l0.4,0.9L134.7,328.1z"/>
			<path d="M162.5,294.5l2,0.1l5.4,12.6v1.2l1,0.8l2.9,5.7h-0.1l2.4,4.5l-0.2,2.9l-2.2,4l-2.6,6.1l-2.5,4l-0.4,1.5l-3.4,8.5
				l-6.2,0.7l-0.8-2.1l-0.6-1.6l-3.4-8.2h0.1l-2.9-5.6l-3.4-7.5l-0.2-3.5l2-4.1l2.5-4.9l1.1,0.1l0.1-2l3.2-6.8l0.9-2l1.3-4.1
				L162.5,294.5z M161.8,338.4l0.5-1.2l2.1-4.1l0.9,0.1l-0.3-1.2l1.5-3.6v0.1l2.9-6.2l0.3-0.9l-0.3-0.6l-2.7-5.9l0.6-1.1l-1.1,0.1
				l-4.8-11.3l-0.4,1.1l-1.5,2.9v0.6l-4.6,9.2l0.1,0.5l-1.3,2.9l3.7,9l-0.1,0.8l1.3,1.2L161.8,338.4z M159.6,316.5l2.5-1.3l2.3,2.7
				l1,1.9l0.1,2l-1.2,1.3l-0.3,0.6l-0.6,1.3l-2.6,1.3l-2.1-3.2l-0.8-1.5l-0.1-1.9l1.1-1.5L159.6,316.5z"/>
			<path d="M187.4,313.7l0.1-8.5l-1.9,1.1l-4.3,4.1l-1.7-2.3l-2-3.4l1.5-1.4l1.6-1l3.2-2.7l1.1,0.5l0.6-2l2.8-2.8l0.9-0.7l4.7,2
				l-0.3,6.4l-0.6,19.6l0.7,17.4l-0.8,0.6l1.2,0.8l0.1,1.5l-0.3,2.8l-2.6,0.6h-4.6v-3.9l0.9-13.9c-0.1-2-0.3-3.7-0.4-5.7l-0.1-2.3
				l0.3-3l1.2-0.8l-1.3-0.8L187.4,313.7z"/>
			<path d="M209,322.9l-1.8-0.6l-2.9-2.9l-3.5-3l-0.8-0.9l-1.3-1.1l-0.2-4.3l3.1-4.6l2-1.1l0.1-1.2l1.7-2.6l3.9-5.8l2.9,0.1l2.2-0.1
				l3.5,4.8l7.6,8.5l0.1,4.1l-3.2,5.8l-2,3.6l-1.4,2.8l-0.8,2l-2.8,6.5l-1.3,3.4l-2,2l0.3,1.9l-3.2,7l-6.4-3.2l1.1-2.1l3.9-7l1-3
				l0.8-0.7l-0.1-0.6l3.5-6.9l2-1.4l-0.8-1.1l2.3-5.3l1.3-2.3l1.2-2.6l-0.6-0.6l-1.8-2l0.2-1.1l-0.9,0.1l-3.6-4.3l-0.6-0.6l-3.2,4.5
				l-1.7,1.7l-0.8,1.7l-0.7,1.2l2.8,2.7l0.1,0.6l1.9,1.6l2.2,1.7L209,322.9z"/>
		</g>
	</g>
</g>
<g id="Ren">
	<g>
		<g>
			<path d="M81.9,163.1l0.2,18.5l0.5,17l0.5,1.5l0.2,14.1l-6.8,2.7l-11.2-1l1-27l2.5-6.6l-1.5-2.2v-6.6l-0.7-19.9l-0.3-8.8l1.4-3.4
				l-0.9-32.5l-0.7-14.6l13.4-5.4l27,23.5l1,4.2c0.2,0.2,2.9-0.7,3.1-0.7l8.2,7.5l-1.2,10.2l-7.8,9.5l-5.4,6.5l-2.9,3.6l-4.8,6.5
				c1.2,2.4,3.2,5.3,4.2,7.3v2.9c1.4,1.5,2.4,2.4,3.6,4.1l6.8,11.6v2.2l1,0.5l2.4,4.9v-0.2l3.1,6.5l5.6,6l-0.2,4.9l-13.8,7.6
				l-4.1-6.6l-6-13.6l0.2-2.9l-2-1l-6.3-11.9l-1.5-3.9L83,164.1L81.9,163.1z M81.9,154.4l1.2-0.7l8.5-10.5c2.4-2.9,6.5-8.2,8.7-11.2
				l1.9-2.4l-3.4-4.2l-1.2-0.9L81.9,109l-0.3,13.1v1.7l-1.4,3.2l0.7,3.1l0.3,1l0.3,1.9l0.7,15.1L81.9,154.4z"/>
		</g>
	</g>
	<g>
		<g>
			<path d="M248.9,161.5l0.2,18.5l0.5,17l0.5,1.5l0.2,14.1l-6.8,2.7l-11.2-1l1-27l2.5-6.6l-1.5-2.2v-6.6l-0.7-19.9l-0.3-8.8l1.4-3.4
				l-0.9-32.5l-0.7-14.6l13.4-5.4l27,23.5l1,4.2c0.2,0.2,2.9-0.7,3.1-0.7l8.2,7.5l-1.2,10.2l-7.8,9.5l-5.4,6.5l-2.9,3.6l-4.8,6.5
				c1.2,2.4,3.2,5.3,4.2,7.3v2.9c1.4,1.5,2.4,2.4,3.6,4.1l6.8,11.6v2.2l1,0.5l2.4,4.9v-0.2l3.1,6.5l5.6,6l-0.2,4.9l-13.8,7.6
				l-4.1-6.6l-6-13.6l0.2-2.9l-2-1l-6.3-11.9l-1.5-3.9l-6.8-13.8L248.9,161.5z M248.9,152.9l1.2-0.7l8.5-10.5
				c2.4-2.9,6.5-8.2,8.7-11.2l1.9-2.4l-3.4-4.2l-1.2-0.9l-15.6-15.5l-0.3,13.1v1.7l-1.4,3.2l0.7,3.1l0.3,1l0.3,1.9l0.7,15.1
				L248.9,152.9z"/>
		</g>
	</g>
	<g>
	</g>
	<g>
	</g>
	<g>
	</g>
	<g>
	</g>
	<g>
	</g>
	<g>
	</g>
</g>
</svg>
