<?xml version="1.0" encoding="UTF-8" standalone="no"?>
<!DOCTYPE svg PUBLIC "-//W3C//DTD SVG 1.1//EN" "http://www.w3.org/Graphics/SVG/1.1/DTD/svg11.dtd">
<svg width="100%" height="100%" viewBox="0 0 800 900" version="1.1" xmlns="http://www.w3.org/2000/svg" xmlns:xlink="http://www.w3.org/1999/xlink" xml:space="preserve" xmlns:serif="http://www.serif.com/" style="fill-rule:evenodd;clip-rule:evenodd;">
    <g id="Mitochondria">
    </g>
    <g id="Peroxisome">
    </g>
    <g id="Endoplasmic-reticulum" serif:id="Endoplasmic reticulum">
    </g>
    <g id="Cytosol">
    </g>
    <g id="Extracellular">
    </g>
    <g id="Arginine-and-proline-metabolism" serif:id="Arginine and proline metabolism">
    </g>
    <g id="fes" transform="matrix(1,0,0,1,-5015.5,-1600.5)">
        <g transform="matrix(1,0,0,1,3049.16,-651.14)">
            <path d="M2070.6,2559.5L2129.9,2500.1M2275.9,2649L2146.4,2649L2146.4,2516.6M2146.4,2450.6L2146.4,2288.3L2275.9,2288.3M2133.5,2463.5L2067.2,2360.4M2129.9,2467.1L2070.6,2407.8" style="fill:none;fill-rule:nonzero;stroke:rgb(102,102,102);stroke-width:3px;"/>
        </g>
        <g transform="matrix(1,0,0,1,3049.16,-651.14)">
            <path d="M2742.7,3030.7L2742.7,2916.5M2552.8,2883.5L2709.7,2883.5M2775.7,2883.5L2843.5,2883.5M2742.7,2850.5L2742.7,2726.9" style="fill:none;fill-rule:nonzero;stroke:rgb(102,102,102);stroke-width:3px;"/>
        </g>
        <g transform="matrix(1,0,0,1,3049.16,-651.14)">
            <path d="M2332.7,3604.5L2567.9,3446.2L2567.9,3383.2M2643.8,3426.1L2584.4,3366.7M2647.1,3473.4L2580.8,3370.3M2567.9,3317.2L2567.9,3095.6L2341.9,3095.6M2584.4,3333.7L2643.8,3274.4" style="fill:none;fill-rule:nonzero;stroke:rgb(102,102,102);stroke-width:3px;"/>
        </g>
        <g transform="matrix(1,0,0,1,3049.16,-651.14)">
            <path d="M2233.1,3425.9L2292.4,3366.5M2308.9,3597.5L2308.9,3383M2229.7,3473.2L2296,3370.1M2308.9,3317L2308.9,3118.6M2292.4,3333.5L2233.1,3274.2" style="fill:none;fill-rule:nonzero;stroke:rgb(102,102,102);stroke-width:3px;"/>
        </g>
        <g transform="matrix(1,0,0,1,3049.16,-651.14)">
            <path d="M2308.9,3072.6L2308.9,2916.5M2486.8,2883.5L2341.9,2883.5M2392.9,2967.7L2325.4,2900M2292.5,2867L2234.5,2808.7M2275.9,2883.5L2183.1,2883.5M2308.9,2850.5L2308.9,2672" style="fill:none;fill-rule:nonzero;stroke:rgb(102,102,102);stroke-width:3px;"/>
        </g>
        <g transform="matrix(1,0,0,1,3049.16,-651.14)">
            <path d="M2536.7,2559.5L2477.3,2500.1M2341.9,2649L2460.8,2649L2460.8,2516.6M2473.7,2463.5L2540,2360.4M2460.8,2450.6L2460.8,2288.3L2341.9,2288.3M2477.3,2467.1L2536.7,2407.8" style="fill:none;fill-rule:nonzero;stroke:rgb(102,102,102);stroke-width:3px;"/>
        </g>
        <g transform="matrix(1,0,0,1,3049.16,-651.14)">
            <path d="M2275.9,3095.6L2128.4,3095.6L2128.4,3323.4M2052.6,3280.6L2111.9,3339.9M2111.9,3372.9L2052.6,3432.3M2128.4,3389.4L2128.4,3620.5L2275.9,3620.5M2115.5,3376.5L2049.2,3479.6" style="fill:none;fill-rule:nonzero;stroke:rgb(102,102,102);stroke-width:3px;"/>
        </g>
    </g>
    <g id="fehs" transform="matrix(1,0,0,1,-5015.5,-1600.5)">
        <g transform="matrix(1,0,0,1,3049.16,-651.14)">
            <path d="M2117.9,2505.1L2125,2512.1L2131.3,2498.7M2141.4,2528.6L2151.4,2528.6L2146.4,2514.6M2263.9,2283.3L2263.9,2293.3L2277.9,2288.3M2069.5,2373.2L2077.9,2367.8L2066.2,2358.8M2075.5,2419.8L2082.6,2412.7L2069.2,2406.3" style="fill:rgb(102,102,102);fill-rule:nonzero;"/>
        </g>
        <g transform="matrix(1,0,0,1,3049.16,-651.14)">
            <path d="M2737.7,2928.5L2747.7,2928.5L2742.7,2914.5M2697.7,2878.5L2697.7,2888.5L2711.7,2883.5M2831.5,2878.5L2831.5,2888.5L2845.5,2883.5M2737.7,2738.9L2747.7,2738.9L2742.7,2724.9" style="fill:rgb(102,102,102);fill-rule:nonzero;"/>
        </g>
        <g transform="matrix(1,0,0,1,3049.16,-651.14)">
            <path d="M2562.9,3395.2L2572.9,3395.2L2567.9,3381.2M2589.4,3378.7L2596.5,3371.7L2583,3365.3M2583.1,3383.1L2591.5,3377.7L2579.8,3368.6M2353.9,3100.6L2353.9,3090.6L2339.9,3095.6M2631.8,3279.3L2638.8,3286.4L2645.2,3272.9" style="fill:rgb(102,102,102);fill-rule:nonzero;"/>
        </g>
        <g transform="matrix(1,0,0,1,3049.16,-651.14)">
            <path d="M2280.4,3371.5L2287.5,3378.5L2293.8,3365.1M2303.9,3395L2313.9,3395L2308.9,3381M2285.3,3377.5L2293.7,3382.9L2297.1,3368.4M2303.9,3130.6L2313.9,3130.6L2308.9,3116.6M2238,3286.2L2245.1,3279.1L2231.7,3272.7" style="fill:rgb(102,102,102);fill-rule:nonzero;"/>
        </g>
        <g transform="matrix(1,0,0,1,3049.16,-651.14)">
            <path d="M2303.9,2928.5L2313.9,2928.5L2308.9,2914.5M2353.9,2888.5L2353.9,2878.5L2339.9,2883.5M2330.3,2912.1L2337.4,2905L2324,2898.6M2239.4,2820.7L2246.5,2813.7L2233.1,2807.3M2195.1,2888.5L2195.1,2878.5L2181.1,2883.5M2303.9,2684L2313.9,2684L2308.9,2670" style="fill:rgb(102,102,102);fill-rule:nonzero;"/>
        </g>
        <g transform="matrix(1,0,0,1,3049.16,-651.14)">
            <path d="M2482.3,2512.1L2489.4,2505.1L2475.9,2498.7M2455.8,2528.6L2465.8,2528.6L2460.8,2514.6M2529.3,2367.8L2537.7,2373.2L2541.1,2358.8M2353.9,2293.3L2353.9,2283.3L2339.9,2288.3M2524.7,2412.7L2531.7,2419.8L2538.1,2406.3" style="fill:rgb(102,102,102);fill-rule:nonzero;"/>
        </g>
    </g>
    <g id="ees" transform="matrix(1,0,0,1,-5015.5,-1600.5)">
        <g transform="matrix(1,0,0,1,3049.16,-651.14)">
            <path d="M2236.4,2483.6L2146.4,2483.6" style="fill:none;fill-rule:nonzero;stroke:rgb(102,102,102);stroke-width:3px;"/>
        </g>
        <g transform="matrix(1,0,0,1,3049.16,-651.14)">
            <path d="M2652.8,2882.7L2742.7,2883.5" style="fill:none;fill-rule:nonzero;stroke:rgb(102,102,102);stroke-width:3px;"/>
        </g>
        <g transform="matrix(1,0,0,1,3049.16,-651.14)">
            <path d="M2397.4,2788.7L2308.9,2883.5" style="fill:none;fill-rule:nonzero;stroke:rgb(102,102,102);stroke-width:3px;"/>
        </g>
        <g transform="matrix(1,0,0,1,3049.16,-651.14)">
            <path d="M2370.8,2483.6L2460.8,2483.6" style="fill:none;fill-rule:nonzero;stroke:rgb(102,102,102);stroke-width:3px;"/>
        </g>
    </g>
    <g id="nodes" transform="matrix(1,0,0,1,-5015.5,-1600.5)">
        <g id="HMR_6966">
        </g>
        <g id="HMR_6962">
        </g>
        <g id="HMR_4784">
        </g>
        <g id="HMR_6964">
        </g>
        <g id="HMR_4785">
        </g>
        <g id="HMR_4780" transform="matrix(1,0,0,1,3049.16,-651.14)">
            <g transform="matrix(1,0,0,1,2146.4,2483.6)">
                <path d="M0,-30L30,0L0,30L-30,0L0,-30" style="fill:white;fill-rule:nonzero;stroke:black;stroke-width:1px;"/>
            </g>
            <g transform="matrix(1,0,0,1,2146.4,2488.6)">
                <text x="-40.465px" y="0px" style="font-family:'Arial-BoldMT', 'Arial', sans-serif;font-weight:700;font-size:16px;">HMR_4780</text>
            </g>
        </g>
        <g id="DPROOp">
        </g>
        <g id="EHGLAT" transform="matrix(1,0,0,1,3049.16,-651.14)">
            <g transform="matrix(1,0,0,1,2742.7,2883.5)">
                <path d="M0,-30L30,0L0,30L-30,0L0,-30" style="fill:white;fill-rule:nonzero;stroke:black;stroke-width:1px;"/>
            </g>
            <g transform="matrix(1,0,0,1,2742.7,2888.5)">
                <text x="-32.293px" y="0px" style="font-family:'Arial-BoldMT', 'Arial', sans-serif;font-weight:700;font-size:16px;">EHGLA<tspan x="22.52px " y="0px ">T</tspan></text>
            </g>
        </g>
        <g id="HMR_6943">
        </g>
        <g id="HMR_8607">
        </g>
        <g id="HMR_6946">
        </g>
        <g id="HMR_3832">
        </g>
        <g id="HMR_3833">
        </g>
        <g id="HMR_3835">
        </g>
        <g id="HMR_8608">
        </g>
        <g id="HMR_6949">
        </g>
        <g id="PROAKGOX1r">
        </g>
        <g id="HMR_4776" transform="matrix(1,0,0,1,3049.16,-651.14)">
            <g transform="matrix(1,0,0,1,2308.9,2883.5)">
                <path d="M0,-30L30,0L0,30L-30,0L0,-30" style="fill:white;fill-rule:nonzero;stroke:black;stroke-width:1px;"/>
            </g>
            <g transform="matrix(1,0,0,1,2308.9,2888.5)">
                <text x="-40.465px" y="0px" style="font-family:'Arial-BoldMT', 'Arial', sans-serif;font-weight:700;font-size:16px;">HMR_4776</text>
            </g>
        </g>
        <g id="HMR_6957">
        </g>
        <g id="HMR_4778" transform="matrix(1,0,0,1,3049.16,-651.14)">
            <g transform="matrix(1,0,0,1,2460.8,2483.6)">
                <path d="M0,-30L30,0L0,30L-30,0L0,-30" style="fill:white;fill-rule:nonzero;stroke:black;stroke-width:1px;"/>
            </g>
            <g transform="matrix(1,0,0,1,2460.8,2488.6)">
                <text x="-40.465px" y="0px" style="font-family:'Arial-BoldMT', 'Arial', sans-serif;font-weight:700;font-size:16px;">HMR_4778</text>
            </g>
        </g>
        <g id="HMR_6952">
        </g>
        <g id="HMR_6959">
        </g>
        <g id="HMR_8610">
        </g>
        <g id="HMR_8427">
        </g>
        <g id="HMR_8425">
        </g>
        <g id="HMR_3816">
        </g>
        <g id="HMR_3819">
        </g>
        <g id="DKMPPD">
        </g>
        <g id="HMR_4583">
        </g>
        <g id="HMR_4584">
        </g>
        <g id="HMR_6933">
        </g>
        <g id="HMR_6930">
        </g>
        <g id="HMR_6936">
        </g>
        <g id="HMR_6939">
        </g>
        <g id="HMR_4190">
        </g>
        <g id="HMR_8431">
        </g>
        <g id="NABTNOm">
        </g>
        <g id="HMR_3993">
        </g>
        <g id="HMR_4212">
        </g>
        <g id="r0145">
        </g>
        <g id="HMR_8096">
        </g>
        <g id="HMR_8097">
        </g>
        <g id="HMR_8098">
        </g>
        <g id="HMR_4423">
        </g>
        <g id="HMR_6942">
        </g>
        <g id="HMR_6935">
        </g>
        <g id="HMR_6932">
        </g>
        <g id="HMR_6945">
        </g>
        <g id="HMR_4422">
        </g>
        <g transform="matrix(1,0,0,1,5105.56,1922.46)">
            <circle cx="0" cy="0" r="7" style="fill:rgb(34,34,34);"/>
            <g transform="matrix(1,0,0,1,-44.7,6)">
                <text x="-30.757px" y="0px" style="font-family:'Arial-BoldMT', 'Arial', sans-serif;font-weight:700;font-size:18px;">NADP+</text>
            </g>
        </g>
        <g transform="matrix(1,0,0,1,5358.06,1997.86)">
            <ellipse cx="0" cy="0" rx="30" ry="20" style="fill:rgb(255,0,31);stroke:rgb(51,51,51);stroke-width:1px;"/>
            <g transform="matrix(1,0,0,1,3.69205,-0.596407)">
                <g transform="matrix(1,0,0,1,0,-4)">
                    <text x="-71.016px" y="0px" style="font-family:'Arial-BoldMT', 'Arial', sans-serif;font-weight:700;font-size:18px;">trans-4-hydroxy-</text>
                </g>
                <g transform="matrix(1,0,0,1,0,16)">
                    <text x="-38.496px" y="0px" style="font-family:'Arial-BoldMT', 'Arial', sans-serif;font-weight:700;font-size:18px;">L-proline</text>
                </g>
            </g>
        </g>
        <g transform="matrix(1,0,0,1,5358.06,1637.16)">
            <ellipse cx="0" cy="0" rx="30" ry="20" style="fill:rgb(153,221,255);stroke:rgb(51,51,51);stroke-width:1px;"/>
            <g>
                <g transform="matrix(1,0,0,1,0,-14)">
                    <text x="-58.003px" y="0px" style="font-family:'Arial-BoldMT', 'Arial', sans-serif;font-weight:700;font-size:18px;">L-1-pyrroline-</text>
                </g>
                <g transform="matrix(1,0,0,1,0,6)">
                    <text x="-54.013px" y="0px" style="font-family:'Arial-BoldMT', 'Arial', sans-serif;font-weight:700;font-size:18px;">3-hydroxy-5-</text>
                </g>
                <g transform="matrix(1,0,0,1,0,26)">
                    <text x="-50.027px" y="0px" style="font-family:'Arial-BoldMT', 'Arial', sans-serif;font-weight:700;font-size:18px;">carboxylate</text>
                </g>
            </g>
        </g>
        <g transform="matrix(1,0,0,1,5105.56,1692.46)">
            <circle cx="0" cy="0" r="7" style="fill:rgb(34,34,34);"/>
            <g transform="matrix(1,0,0,1,-46,6)">
                <text x="-32.001px" y="0px" style="font-family:'Arial-BoldMT', 'Arial', sans-serif;font-weight:700;font-size:18px;">NADPH</text>
            </g>
        </g>
        <g transform="matrix(1,0,0,1,5105.56,1742.46)">
            <circle cx="0" cy="0" r="7" style="fill:rgb(34,34,34);"/>
            <g transform="matrix(1,0,0,1,-25.7,6)">
                <text x="-11.755px" y="0px" style="font-family:'Arial-BoldMT', 'Arial', sans-serif;font-weight:700;font-size:18px;">H+</text>
            </g>
        </g>
        <g transform="matrix(1,0,0,1,5791.86,2402.56)">
            <ellipse cx="0" cy="0" rx="30" ry="20" style="fill:rgb(153,221,255);stroke:rgb(51,51,51);stroke-width:1px;"/>
            <g>
                <g transform="matrix(1,0,0,1,0,-4)">
                    <text x="-50.502px" y="0px" style="font-family:'Arial-BoldMT', 'Arial', sans-serif;font-weight:700;font-size:18px;">L-erythro-4-</text>
                </g>
                <g transform="matrix(1,0,0,1,0,16)">
                    <text x="-77.52px" y="0px" style="font-family:'Arial-BoldMT', 'Arial', sans-serif;font-weight:700;font-size:18px;">hydroxyglutamate</text>
                </g>
            </g>
        </g>
        <g transform="matrix(1,0,0,1,5568.96,2232.36)">
            <ellipse cx="0" cy="0" rx="30" ry="20" style="fill:rgb(153,221,255);stroke:rgb(51,51,51);stroke-width:1px;"/>
            <g transform="matrix(1,0,0,1,0,6)">
                <text x="-20px" y="0px" style="font-family:'Arial-BoldMT', 'Arial', sans-serif;font-weight:700;font-size:18px;">AKG</text>
            </g>
        </g>
        <g transform="matrix(1,0,0,1,5791.86,2052.76)">
            <ellipse cx="0" cy="0" rx="30" ry="20" style="fill:rgb(153,221,255);stroke:rgb(51,51,51);stroke-width:1px;"/>
            <g>
                <g transform="matrix(1,0,0,1,0,-4)">
                    <text x="-54.013px" y="0px" style="font-family:'Arial-BoldMT', 'Arial', sans-serif;font-weight:700;font-size:18px;">4-hydroxy-2-</text>
                </g>
                <g transform="matrix(1,0,0,1,0,16)">
                    <text x="-54.009px" y="0px" style="font-family:'Arial-BoldMT', 'Arial', sans-serif;font-weight:700;font-size:18px;">oxoglutarate</text>
                </g>
            </g>
        </g>
        <g transform="matrix(1,0,0,1,5358.06,2444.46)">
            <ellipse cx="0" cy="0" rx="30" ry="20" style="fill:rgb(153,221,255);stroke:rgb(51,51,51);stroke-width:1px;"/>
            <g transform="matrix(1,0,0,1,0,6)">
                <text x="-30.001px" y="0px" style="font-family:'Arial-BoldMT', 'Arial', sans-serif;font-weight:700;font-size:18px;">proline</text>
            </g>
        </g>
        <g transform="matrix(1,0,0,1,5456.16,2330.76)">
            <circle cx="0" cy="0" r="7" style="fill:rgb(34,34,34);"/>
            <g transform="matrix(1,0,0,1,26,6)">
                <text x="-12.006px" y="0px" style="font-family:'Arial-BoldMT', 'Arial', sans-serif;font-weight:700;font-size:18px;">O2</text>
            </g>
        </g>
        <g transform="matrix(1,0,0,1,5269.56,2143.36)">
            <circle cx="0" cy="0" r="7" style="fill:rgb(34,34,34);"/>
            <g transform="matrix(1,0,0,1,-32.5,6)">
                <text x="-18.505px" y="0px" style="font-family:'Arial-BoldMT', 'Arial', sans-serif;font-weight:700;font-size:18px;">CO2</text>
            </g>
        </g>
        <g transform="matrix(1,0,0,1,5199.26,2232.36)">
            <ellipse cx="0" cy="0" rx="30" ry="20" style="fill:rgb(153,221,255);stroke:rgb(51,51,51);stroke-width:1px;"/>
            <g transform="matrix(1,0,0,1,0,6)">
                <text x="-41.52px" y="0px" style="font-family:'Arial-BoldMT', 'Arial', sans-serif;font-weight:700;font-size:18px;">succinate</text>
            </g>
        </g>
        <g transform="matrix(1,0,0,1,5599.96,1922.46)">
            <circle cx="0" cy="0" r="7" style="fill:rgb(34,34,34);"/>
            <g transform="matrix(1,0,0,1,38.7,6)">
                <text x="-24.754px" y="0px" style="font-family:'Arial-BoldMT', 'Arial', sans-serif;font-weight:700;font-size:18px;">NAD+</text>
            </g>
        </g>
        <g transform="matrix(1,0,0,1,5599.96,1692.46)">
            <circle cx="0" cy="0" r="7" style="fill:rgb(34,34,34);"/>
            <g transform="matrix(1,0,0,1,40,6)">
                <text x="-25.998px" y="0px" style="font-family:'Arial-BoldMT', 'Arial', sans-serif;font-weight:700;font-size:18px;">NADH</text>
            </g>
        </g>
        <g transform="matrix(1,0,0,1,5599.96,1742.46)">
            <circle cx="0" cy="0" r="7" style="fill:rgb(34,34,34);"/>
            <g transform="matrix(1,0,0,1,25.7,6)">
                <text x="-11.755px" y="0px" style="font-family:'Arial-BoldMT', 'Arial', sans-serif;font-weight:700;font-size:18px;">H+</text>
            </g>
        </g>
        <g transform="matrix(1,0,0,1,3049.16,-651.14)">
            <g transform="matrix(1,0,0,1,2206.4,2423.6)">
                <rect x="0" y="0" width="60" height="30" style="fill:rgb(193,114,116);fill-rule:nonzero;stroke:black;stroke-width:1px;"/>
            </g>
            <g transform="matrix(1,0,0,1,2236.4,2443.6)">
                <text x="-20.007px" y="0px" style="font-family:'Arial-BoldMT', 'Arial', sans-serif;font-weight:700;font-size:12px;">PYCR1</text>
            </g>
        </g>
        <g transform="matrix(1,0,0,1,3049.16,-651.14)">
            <g transform="matrix(1,0,0,1,2206.4,2453.6)">
                <rect x="0" y="0" width="60" height="30" style="fill:rgb(245,245,249);fill-rule:nonzero;stroke:black;stroke-width:1px;"/>
            </g>
            <g transform="matrix(1,0,0,1,2236.4,2473.6)">
                <text x="-22.336px" y="0px" style="font-family:'Arial-BoldMT', 'Arial', sans-serif;font-weight:700;font-size:12px;">LEFTY1</text>
            </g>
        </g>
        <g transform="matrix(1,0,0,1,3049.16,-651.14)">
            <g transform="matrix(1,0,0,1,2206.4,2483.6)">
                <rect x="0" y="0" width="60" height="30" style="fill:rgb(206,148,151);fill-rule:nonzero;stroke:black;stroke-width:1px;"/>
            </g>
            <g transform="matrix(1,0,0,1,2236.4,2503.6)">
                <text x="-20.007px" y="0px" style="font-family:'Arial-BoldMT', 'Arial', sans-serif;font-weight:700;font-size:12px;">PYCR3</text>
            </g>
        </g>
        <g transform="matrix(1,0,0,1,3049.16,-651.14)">
            <g transform="matrix(1,0,0,1,2206.4,2513.6)">
                <rect x="0" y="0" width="60" height="30" style="fill:rgb(231,210,214);fill-rule:nonzero;stroke:black;stroke-width:1px;"/>
            </g>
            <g transform="matrix(1,0,0,1,2236.4,2533.6)">
                <text x="-20.007px" y="0px" style="font-family:'Arial-BoldMT', 'Arial', sans-serif;font-weight:700;font-size:12px;">PYCR2</text>
            </g>
        </g>
        <g transform="matrix(1,0,0,1,3049.16,-651.14)">
            <g transform="matrix(1,0,0,1,2622.8,2867.7)">
                <rect x="0" y="0" width="60" height="30" style="fill:rgb(228,201,205);fill-rule:nonzero;stroke:black;stroke-width:1px;"/>
            </g>
            <g transform="matrix(1,0,0,1,2652.8,2887.7)">
                <text x="-16.336px" y="0px" style="font-family:'Arial-BoldMT', 'Arial', sans-serif;font-weight:700;font-size:12px;">GOT1</text>
            </g>
        </g>
        <g transform="matrix(1,0,0,1,3049.16,-651.14)">
            <g transform="matrix(1,0,0,1,2367.4,2803.7)">
                <rect x="0" y="0" width="60" height="30" style="fill:rgb(230,206,210);fill-rule:nonzero;stroke:black;stroke-width:1px;"/>
            </g>
            <g transform="matrix(1,0,0,1,2397.4,2823.7)">
                <text x="-19.342px" y="0px" style="font-family:'Arial-BoldMT', 'Arial', sans-serif;font-weight:700;font-size:12px;">P4HA2</text>
            </g>
        </g>
        <g transform="matrix(1,0,0,1,3049.16,-651.14)">
            <g transform="matrix(1,0,0,1,2367.4,2773.7)">
                <rect x="0" y="0" width="60" height="30" style="fill:rgb(211,159,162);fill-rule:nonzero;stroke:black;stroke-width:1px;"/>
            </g>
            <g transform="matrix(1,0,0,1,2397.4,2793.7)">
                <text x="-19.342px" y="0px" style="font-family:'Arial-BoldMT', 'Arial', sans-serif;font-weight:700;font-size:12px;">P4HA3</text>
            </g>
        </g>
        <g transform="matrix(1,0,0,1,3049.16,-651.14)">
            <g transform="matrix(1,0,0,1,2367.4,2743.7)">
                <rect x="0" y="0" width="60" height="30" style="fill:rgb(222,186,190);fill-rule:nonzero;stroke:black;stroke-width:1px;"/>
            </g>
            <g transform="matrix(1,0,0,1,2397.4,2763.7)">
                <text x="-19.342px" y="0px" style="font-family:'Arial-BoldMT', 'Arial', sans-serif;font-weight:700;font-size:12px;">P4HA1</text>
            </g>
        </g>
        <g transform="matrix(1,0,0,1,3049.16,-651.14)">
            <g transform="matrix(1,0,0,1,2340.8,2423.6)">
                <rect x="0" y="0" width="60" height="30" style="fill:rgb(193,114,116);fill-rule:nonzero;stroke:black;stroke-width:1px;"/>
            </g>
            <g transform="matrix(1,0,0,1,2370.8,2443.6)">
                <text x="-20.007px" y="0px" style="font-family:'Arial-BoldMT', 'Arial', sans-serif;font-weight:700;font-size:12px;">PYCR1</text>
            </g>
        </g>
        <g transform="matrix(1,0,0,1,3049.16,-651.14)">
            <g transform="matrix(1,0,0,1,2340.8,2453.6)">
                <rect x="0" y="0" width="60" height="30" style="fill:rgb(245,245,249);fill-rule:nonzero;stroke:black;stroke-width:1px;"/>
            </g>
            <g transform="matrix(1,0,0,1,2370.8,2473.6)">
                <text x="-22.336px" y="0px" style="font-family:'Arial-BoldMT', 'Arial', sans-serif;font-weight:700;font-size:12px;">LEFTY1</text>
            </g>
        </g>
        <g transform="matrix(1,0,0,1,3049.16,-651.14)">
            <g transform="matrix(1,0,0,1,2340.8,2483.6)">
                <rect x="0" y="0" width="60" height="30" style="fill:rgb(206,148,151);fill-rule:nonzero;stroke:black;stroke-width:1px;"/>
            </g>
            <g transform="matrix(1,0,0,1,2370.8,2503.6)">
                <text x="-20.007px" y="0px" style="font-family:'Arial-BoldMT', 'Arial', sans-serif;font-weight:700;font-size:12px;">PYCR3</text>
            </g>
        </g>
        <g transform="matrix(1,0,0,1,3049.16,-651.14)">
            <g transform="matrix(1,0,0,1,2340.8,2513.6)">
                <rect x="0" y="0" width="60" height="30" style="fill:rgb(231,210,214);fill-rule:nonzero;stroke:black;stroke-width:1px;"/>
            </g>
            <g transform="matrix(1,0,0,1,2370.8,2533.6)">
                <text x="-20.007px" y="0px" style="font-family:'Arial-BoldMT', 'Arial', sans-serif;font-weight:700;font-size:12px;">PYCR2</text>
            </g>
        </g>
    </g>
    <g id="license" transform="matrix(1,0,0,1,-5015.5,-1600.5)">
        <g transform="matrix(1.30124,0,0,1.30109,13116.5,3605.56)">
            <g id="g5706_2_">
            </g>
        </g>
    </g>
</svg>
