<svg xmlns="http://www.w3.org/2000/svg" viewBox="0 0 193.75 41.68"><defs><style>.cls-1{fill:#fff;}</style></defs><title>logo-white</title><g id="Layer_1" data-name="Layer 1"><g id="Layer_5" data-name="Layer 5"><path class="cls-1" d="M142.81,1.12c.39.26.87,0,1.32.33l-1.85,1.91c-.17.18-.34,0-.5,0A6.78,6.78,0,0,0,139.31,3a4,4,0,0,0-3.38,2.57A13.07,13.07,0,0,0,135,9.5c-.15,1.18-.25,2.36-.39,3.54-.06.52,0,.71.62.7h6.34a6.36,6.36,0,0,0-1.26,2.68c-.11.43,0,.53.43.53h5.66c.16,0,.36.07.41-.22a3.47,3.47,0,0,0-3.09-3.7h-.37c-.14,0-.26,0-.27-.16s.09-.2.22-.23c2.7-.76,6,1.88,5.85,4.64,0,.47-.33.33-.57.33h-7.75c-.64,0-.8.21-.82.79a7.36,7.36,0,0,0,1.75,5.23A4.63,4.63,0,0,0,147,24.87a3.42,3.42,0,0,0,2-2c.06-.15.07-.43.33-.33s.09.32,0,.47a4.15,4.15,0,0,1-2.17,2.62,7.43,7.43,0,0,1-7.93-1.16A7.29,7.29,0,0,1,138,16.05l.22-.42c-.1-.21-.26-.14-.39-.14h-3.08c-.36,0-.49.09-.53.46-.22,2.08-.44,4.16-.7,6.23-.36,3-.33,6-1,9a11.72,11.72,0,0,1-4.13,7.06,8.43,8.43,0,0,1-3.84,1.69c-.1,0-.21,0-.26.12h-2.08l-1-.33,1.87-1.7c.18-.17.38,0,.58,0a6,6,0,0,0,2.42.25,4.45,4.45,0,0,0,3.37-2.58,11.22,11.22,0,0,0,1.11-4.14c.52-5.13,1-10.28,1.53-15.41,0-.5-.09-.63-.57-.6h-2.13c.63-.65,1.14-1.21,1.67-1.75.16-.16.39-.1.59-.07.54.07.74-.12.78-.69a16.83,16.83,0,0,1,1-4.8,10.14,10.14,0,0,1,4.68-5.93,9.26,9.26,0,0,1,3.32-1c.12,0,.3.06.37-.14Z"/><path class="cls-1" d="M192.65,20.81c-.21.07-.15.28-.17.42a6.43,6.43,0,0,1-7.46,5,9.32,9.32,0,0,1-2.17-.63c-.92-.39-1.37-.23-1.91.62a.32.32,0,0,0-.07.1c-.09.33-.33.37-.62.33s-.21-.34-.21-.53V8.64A6.77,6.77,0,0,0,179.87,7a1.86,1.86,0,0,0-1.76-1.57c-.16,0-.41.1-.44-.2s.23-.26.43-.3c1.28-.17,2.56-.32,3.83-.54.46-.07.5.06.5.46v9.58a5.24,5.24,0,0,1,6.07-1.49,5.79,5.79,0,0,1,4,4.81c0,.09,0,.16.11.18C192.65,18.93,192.65,19.87,192.65,20.81Zm-10.23-1.53a16.07,16.07,0,0,0,.41,4.27,2.87,2.87,0,0,0,3.36,2.27l.22-.05a3.74,3.74,0,0,0,2.45-1.9,8.63,8.63,0,0,0,.89-6.29,6,6,0,0,0-2.22-3.84,2.86,2.86,0,0,0-4,.41l-.19.25a3.81,3.81,0,0,0-.63,1.51,13.43,13.43,0,0,0-.26,3.38Z"/><path class="cls-1" d="M72.67,22.7V19.93c0-.14-.11-.36.15-.39s.3.15.34.34a12.92,12.92,0,0,0,1.35,3.34c1.08,1.71,2.51,2.88,4.68,2.68a4,4,0,0,0,3.67-4.3q0-.14,0-.29a4.84,4.84,0,0,0-2.49-3.89c-1.3-.74-2.62-1.42-3.93-2.15a5.28,5.28,0,0,1-2.93-3.73,5.9,5.9,0,0,1,1.9-5.67,5.57,5.57,0,0,1,5.85-1.11c.64.21,1.26.49,1.9.71s1,.23,1.24-.46a.26.26,0,0,1,.3-.21h0c.2,0,.14.23.14.36,0,1.82.06,3.64.09,5.46,0,.14.07.3-.17.3s-.23-.1-.28-.26c-.15-.53-.32-1.06-.49-1.58A7.58,7.58,0,0,0,82.14,6a3.79,3.79,0,0,0-5.32-.09,3.68,3.68,0,0,0,.12,5.2l.14.13a11.69,11.69,0,0,0,3.2,1.9,14,14,0,0,1,4,2.5,6,6,0,0,1,1.47,6.49,5.93,5.93,0,0,1-5,4.21,9.27,9.27,0,0,1-5.28-.68c-.36-.15-.71-.31-1.08-.44a1,1,0,0,0-1.28.39c-.09.14-.17.3-.37.25s-.14-.27-.14-.42V22.68Z"/><path class="cls-1" d="M114.25,26h-8.62c-.2,0-.53.15-.55-.18s.32-.21.5-.27.28,0,.43-.06a2.72,2.72,0,0,0,2.22-2.73c0-.38.06-.78.06-1.17V8.27a2.74,2.74,0,0,0-2.59-2.89h-.08c-.18,0-.49,0-.48-.25s.32-.18.49-.18h8.86c.16,0,.41-.11.46.16s-.17.25-.33.26c-2.35.22-2.82,1.64-2.83,3.32,0,4.26-.16,8.53.07,12.79a3.75,3.75,0,0,0,3.6,3.9h.23a11.79,11.79,0,0,0,2.94-.11,5.07,5.07,0,0,0,4.09-3.48c.21-.59.34-1.22.53-1.82,0-.14,0-.37.26-.34s.21.25.21.42c0,1.85-.11,3.69-.15,5.53,0,.46-.27.42-.57.42C120,26,117.13,26,114.25,26Z"/><path class="cls-1" d="M93.23,26.22c-3.25,0-5.59-1.62-6.35-4.44a7.13,7.13,0,0,1,4.27-8.71,7.41,7.41,0,0,1,5,0,3.31,3.31,0,0,1,1.38.9,1.42,1.42,0,0,1,.37,1.53,1,1,0,0,1-1,.7,1.37,1.37,0,0,1-1.3-.86,5.15,5.15,0,0,1-.32-.86,1.89,1.89,0,0,0-2.6-1.32,3.48,3.48,0,0,0-2.1,1.69,8.13,8.13,0,0,0-.44,7.88,4.53,4.53,0,0,0,3.61,2.79,3.29,3.29,0,0,0,3.67-2c.07-.16.06-.5.36-.38s.06.36,0,.52A4,4,0,0,1,94,26.27,4.57,4.57,0,0,0,93.23,26.22Z"/><path class="cls-1" d="M128.65,18.42v4.8c0,1.6.37,1.91,1.77,2.31.16,0,.43,0,.38.3s-.3.16-.47.16h-5.91c-.15,0-.41.12-.44-.17s.21-.23.34-.25c1.33-.14,1.77-.89,1.85-2.19.12-2.15.09-4.31,0-6.45a12.23,12.23,0,0,0-.1-1.65,1.78,1.78,0,0,0-1.62-1.66c-.15,0-.37,0-.37-.2s.22-.2.37-.21c1.19-.16,2.4-.3,3.59-.47.43-.06.52.09.52.49v5.23C128.62,18.42,128.64,18.42,128.65,18.42Z"/><path class="cls-1" d="M102.47,18.21v5c0,1.46.39,1.91,1.78,2.31.16,0,.43,0,.37.3s-.3.15-.46.15H98.25c-.16,0-.42.11-.42-.2s.22-.21.37-.25c1.34-.33,1.7-.69,1.8-2.08a59.89,59.89,0,0,0,0-7.86c-.07-1.28-.52-1.72-1.75-2-.14,0-.3,0-.27-.23s.15-.16.27-.17c1.28-.16,2.56-.31,3.84-.49.44-.06.34.2.34.43v5.11Z"/><path class="cls-1" d="M101.22,7.28a1.46,1.46,0,0,1,1.45,1.43,1.48,1.48,0,0,1-1.5,1.46h0a1.44,1.44,0,0,1-1.42-1.45,1.42,1.42,0,0,1,1.4-1.44Z"/><path class="cls-1" d="M125.95,8.73a1.47,1.47,0,1,1,1.5,1.48,1.45,1.45,0,0,1-1.5-1.4S125.95,8.76,125.95,8.73Z"/><path class="cls-1" d="M157.27,26h-8.86c-.14,0-.3,0-.31-.18s.12-.22.27-.23a6.77,6.77,0,0,0,.85-.14,2.54,2.54,0,0,0,2-2.18,9.22,9.22,0,0,0,.14-1.65V8.8a7.4,7.4,0,0,0-.14-1.28A2.58,2.58,0,0,0,149,5.42a1.49,1.49,0,0,1-.55-.07c-.18-.07-.36,0-.33-.25s.21-.15.33-.16h9.17c.12,0,.31-.07.34.15s-.16.23-.32.26a7.7,7.7,0,0,0-.9.17,2.5,2.5,0,0,0-1.86,2.07,10.07,10.07,0,0,0-.15,2V20.3a12.14,12.14,0,0,0,.14,1.77,3.49,3.49,0,0,0,2.92,3.14,9.31,9.31,0,0,0,4.5-.15,5,5,0,0,0,3.37-3.31c.21-.58.34-1.18.5-1.77,0-.18,0-.46.32-.42s.17.28.16.43c0,1.82-.12,3.64-.16,5.46,0,.46-.23.47-.58.47C163.06,26,160.17,26,157.27,26Z"/><path class="cls-1" d="M174.5,24.42a5,5,0,0,1-4.15,1.75,5.17,5.17,0,0,1-1.14-.18A2.84,2.84,0,0,1,167,23.52a3.12,3.12,0,0,1,1.66-3.1,14.31,14.31,0,0,1,2.9-1,7.1,7.1,0,0,0,2-.79,1.7,1.7,0,0,0,.8-1,4.94,4.94,0,0,0-.32-3.53A2.14,2.14,0,0,0,172,13a2,2,0,0,0-1.83,1.3c-.11.27-.23.53-.34.79a1.25,1.25,0,0,1-2.31-.14,1.19,1.19,0,0,1,.48-1.35,5.5,5.5,0,0,1,2.65-.91,8.28,8.28,0,0,1,4.33.54,2.62,2.62,0,0,1,1.92,2.81v7a4.56,4.56,0,0,0,.11,1.16,1.18,1.18,0,0,0,.89,1,1.28,1.28,0,0,0,1.39-.41l.16-.18c.1-.12.2-.22.36-.1s0,.22,0,.33A2.14,2.14,0,0,1,178.55,26a3.15,3.15,0,0,1-3.8-1.22A2.13,2.13,0,0,1,174.5,24.42Zm0-6c-1.12.91-2.35,1.38-3.41,2.13a3.34,3.34,0,0,0-1.42,2.34,2.48,2.48,0,0,0,1.08,2.53,2.28,2.28,0,0,0,2.55-.48,3.33,3.33,0,0,0,.94-1.62A21.59,21.59,0,0,0,174.5,18.42Z"/></g><g id="_68158dc0-7541-4710-9a16-d392248d7526" data-name="68158dc0-7541-4710-9a16-d392248d7526"><path id="_9857a123-237b-4256-b902-032d0b005c4a" data-name="9857a123-237b-4256-b902-032d0b005c4a" class="cls-1" d="M38.6,5.25h0a.55.55,0,0,0-.49-.3h-.45a.3.3,0,0,0-.27.44l.75,1.49L38.83,8A7.37,7.37,0,0,0,41,10.34l4.44,3.11A5.55,5.55,0,0,1,46.91,15l1.45,2.33.21-1.88L47.4,13.41A4.34,4.34,0,0,0,46,11.92L41.22,8.7l-.47-.43a8.4,8.4,0,0,1-1.84-2.42l-.31-.62"/><path id="_5918269d-1406-4678-9de9-13a5c04a7d53" data-name="5918269d-1406-4678-9de9-13a5c04a7d53" class="cls-1" d="M41.23,22.67h0l-1.6-1.47-1-2.36,0-.91-.47,1.62.26,1a4.63,4.63,0,0,0,2,2.74L44.66,26a2.55,2.55,0,0,0,1.39.41h.17a.43.43,0,0,0,.21-.8l-5.19-3"/><path id="_86044cec-69b9-4e3e-870a-14d536c2eda6" data-name="86044cec-69b9-4e3e-870a-14d536c2eda6" class="cls-1" d="M48.26,8.12h0l0,0a.66.66,0,0,1,0,.5l-.18.59a.23.23,0,0,1-.39.07l-2.4-3.09a.49.49,0,0,1,.41-.79l.75,0a.65.65,0,0,1,.54.35l1.21,2.29"/><path id="_57e59c5d-422d-4196-9c69-54dd0ea4dfd6" data-name="57e59c5d-422d-4196-9c69-54dd0ea4dfd6" class="cls-1" d="M47,6.52h0a.34.34,0,0,1-.33.5L43.1,6.66H43l-3.94.4a.34.34,0,0,1-.34-.19L38.33,6a.34.34,0,0,1,.37-.48l4.23.83H43L46.33,6a.47.47,0,0,1,.47.25l.15.29"/><path id="_5006d2cf-28d9-45f5-b58a-2366599e8293" data-name="5006d2cf-28d9-45f5-b58a-2366599e8293" class="cls-1" d="M48,8.85h0a.34.34,0,0,1,0,.14h0a.34.34,0,0,1-.31.37h-.06l-2.93-.3h-.06L41,9.36a.34.34,0,0,1-.26-.09L40.39,9a.34.34,0,0,1,.26-.59l4,.35h.1l2.46-.56a.53.53,0,0,1,.57.24l.26.43"/><path id="ce17e4f0-5c4a-4d52-b3d5-bd805c5cef8e" class="cls-1" d="M43.5,10.83l2,.34a.34.34,0,0,0,.17,0l.83-.3a.34.34,0,0,1,.43.43l0,0a.34.34,0,0,1-.35.23l-.91-.07-.14,0-1.07.38a.34.34,0,0,1-.35-.08l-.73-.74a.13.13,0,0,1,.12-.23"/><path id="_2e12d1e7-5436-46d1-829f-8c0050182807" data-name="2e12d1e7-5436-46d1-829f-8c0050182807" class="cls-1" d="M39.16,21.11h0a.34.34,0,0,0,.38.23l2.1-.4h.08l1.55.08a.34.34,0,0,0,.32-.19l.05-.11a.34.34,0,0,0-.38-.48l-1.52.38h-.13l-2.42-.36a.21.21,0,0,0-.23.27l.19.58"/><path id="c1edccc0-60aa-4e2b-80cb-c0b45dfc38eb" class="cls-1" d="M46.28,13.51l-.53.26a.34.34,0,0,1-.15,0l-2.15,0a.34.34,0,0,0-.33.26l-.11.49a.34.34,0,0,0,.44.4l2.24-.79a.34.34,0,0,1,.18,0l.55.11a.34.34,0,0,0,.35-.51l0-.08a.34.34,0,0,0-.43-.13"/><path id="_33ef8bd3-f4ad-4f7d-9575-a39fba21f2b4" data-name="33ef8bd3-f4ad-4f7d-9575-a39fba21f2b4" class="cls-1" d="M48.07,15.95h0a.34.34,0,0,1-.2.43l-.13,0-2.68-.09H45l-4.37.86a.34.34,0,0,1-.35-.52l.57-.87a.34.34,0,0,1,.32-.15L45,16h.1l2.55-.48a.34.34,0,0,1,.38.22l.06.16"/><path id="ddf43d28-54ab-4d6c-81e6-ccba34f4cff9" class="cls-1" d="M44.48,24.9h0a.34.34,0,0,1-.22.61l-2.32-.17h-.08l-2.53.36a.34.34,0,0,1-.33-.51l.3-.48a.34.34,0,0,1,.37-.15l2.16.57a.34.34,0,0,0,.17,0l2.09-.35a.47.47,0,0,1,.35.08l.06,0"/><path id="_194d1b18-4474-423a-a1fa-0a1aac02fca0" data-name="194d1b18-4474-423a-a1fa-0a1aac02fca0" class="cls-1" d="M47,17.58l-.65,1.3a.34.34,0,0,1-.34.19l-3.54-.38h-.09l-3.45.55a.34.34,0,0,1-.35-.5l.2-.35a.34.34,0,0,1,.31-.17l3.28.21h.08L47,17.58h0"/><path id="bbcf203d-caa6-48ed-aaf7-a5b3c9601449" class="cls-1" d="M47.63,9.59l.73-1.11,0,1.67a.84.84,0,0,1-.18.49l-.76,1a9.2,9.2,0,0,1-1.95,1.87l-4.5,3.19a4.59,4.59,0,0,0-.77.69,24.48,24.48,0,0,0-1.93,2.17c.06-.31.08-.48.08-.48a5.65,5.65,0,0,1,1.13-2.58l.37-.48a4.76,4.76,0,0,1,1-1L45.28,12a6.91,6.91,0,0,0,1-.82l.64-.65a5.82,5.82,0,0,0,.74-.91h0"/><path id="d789a99d-81b3-48b2-8066-3ba13134a05b" class="cls-1" d="M44.68,19.21l-3,2.05a9,9,0,0,0-2.41,2.48l-1.68,2.57a.17.17,0,0,0,.05.24l.09,0h.78a.55.55,0,0,0,.47-.27l.4-.68a10.07,10.07,0,0,1,2.81-3l3.06-2.17a17.25,17.25,0,0,0,2.33-2l.5-.51a1.35,1.35,0,0,0,.38-.89l.06-1.53h0a4,4,0,0,1-.87,1.28l-.13.13a3.34,3.34,0,0,1-.3.26l-2.59,2"/><path id="_9695af23-f556-42a9-a490-0f111d8cf73d" data-name="9695af23-f556-42a9-a490-0f111d8cf73d" class="cls-1" d="M1.25,4v22.9H6.17V13.71l6.45,13.23h5.85V4H13.55v13.2L7.05,4Z"/><path id="ad40f32b-ce80-4e49-88cc-4e2f7cd45508" class="cls-1" d="M25.76,17v6h3.16a4.7,4.7,0,0,0,3-.77,2.83,2.83,0,0,0,1-2.35q0-2.85-4.07-2.85h-3Zm0-3.85h2.82a5.15,5.15,0,0,0,2.86-.61,2.29,2.29,0,0,0,.88-2,2,2,0,0,0-1-1.89,6.16,6.16,0,0,0-3-.57H25.75v5.09ZM20.9,4H28Q32.9,4,35.1,5.42a4.83,4.83,0,0,1,2.2,4.41,5.56,5.56,0,0,1-1,3.37,3.85,3.85,0,0,1-2.55,1.58v.16a5.06,5.06,0,0,1,3.14,1.82,5.86,5.86,0,0,1,1,3.54,5.83,5.83,0,0,1-2.26,4.89,9.79,9.79,0,0,1-6.15,1.75H20.9V4"/><path id="_00582248-cd45-4501-9bb0-dce65b6a69ad" data-name="00582248-cd45-4501-9bb0-dce65b6a69ad" class="cls-1" d="M63.49,20.43a5.71,5.71,0,0,1-2.23,4.76A9.89,9.89,0,0,1,55,26.93a14.9,14.9,0,0,1-6.48-1.34V21.2a27,27,0,0,0,3.92,1.42,11.89,11.89,0,0,0,2.94.41,4.26,4.26,0,0,0,2.45-.6,2,2,0,0,0,.85-1.77,1.92,1.92,0,0,0-.38-1.17,4.17,4.17,0,0,0-1.1-1,28.8,28.8,0,0,0-3-1.51,14.13,14.13,0,0,1-3.15-1.85,7,7,0,0,1-1.68-2.06,5.76,5.76,0,0,1-.63-2.75,5.7,5.7,0,0,1,2.06-4.66A8.71,8.71,0,0,1,56.58,4a9.49,9.49,0,0,1,3,.46,28.32,28.32,0,0,1,3,.92l.07,4.49A12.76,12.76,0,0,0,59,8.16a8.68,8.68,0,0,0-2.53-.22,3.17,3.17,0,0,0-2.11.63,2,2,0,0,0-.74,1.63,2,2,0,0,0,.3,1.09,3.23,3.23,0,0,0,.95.89,29.74,29.74,0,0,0,3.08,1.56,12.25,12.25,0,0,1,4.4,3,5.73,5.73,0,0,1,1.18,3.69"/></g></g></svg>