<svg xmlns="http://www.w3.org/2000/svg" viewBox="0 0 257.5 58.01"><defs><style>.cls-1{fill:#dae178;}.cls-2{fill:#eff1c3;}.cls-3{fill:#ccc;}.cls-4{fill:#333;}</style></defs><title>logo_nsr</title><g id="Layer_1" data-name="Layer 1"><g id="Layer_5" data-name="Layer 5"><path class="cls-1" d="M147.06,15.7c.39.26.87,0,1.32.33l-1.85,1.91c-.17.18-.34,0-.5,0a6.78,6.78,0,0,0-2.47-.36,4,4,0,0,0-3.38,2.57,13.07,13.07,0,0,0-.94,3.93c-.15,1.18-.25,2.36-.39,3.54-.06.52,0,.71.62.7h6.34A6.36,6.36,0,0,0,144.55,31c-.11.43,0,.53.43.53h5.66c.16,0,.36.07.41-.22a3.47,3.47,0,0,0-3.09-3.7h-.37c-.14,0-.26,0-.27-.16s.09-.2.22-.23c2.7-.76,6,1.88,5.85,4.64,0,.47-.33.33-.57.33h-7.75c-.64,0-.8.21-.82.79A7.36,7.36,0,0,0,146,38.21a4.63,4.63,0,0,0,5.27,1.24,3.42,3.42,0,0,0,2-2c.06-.15.07-.43.33-.33s.09.32,0,.47a4.15,4.15,0,0,1-2.17,2.62A7.43,7.43,0,0,1,143.5,39a7.29,7.29,0,0,1-1.21-8.42l.22-.42c-.1-.21-.26-.14-.39-.14H139c-.36,0-.49.09-.53.46-.22,2.08-.44,4.16-.7,6.23-.36,3-.33,6-1,9a11.72,11.72,0,0,1-4.13,7.06,8.43,8.43,0,0,1-3.84,1.69c-.1,0-.21,0-.26.12H126.5l-1-.33,1.87-1.7c.18-.17.38,0,.58,0a6,6,0,0,0,2.42.25,4.45,4.45,0,0,0,3.37-2.58,11.22,11.22,0,0,0,1.11-4.14c.52-5.13,1-10.28,1.53-15.41,0-.5-.09-.63-.57-.6h-2.13c.63-.65,1.14-1.21,1.67-1.75.16-.16.39-.1.59-.07.54.07.74-.12.78-.69a16.83,16.83,0,0,1,1-4.8,10.14,10.14,0,0,1,4.68-5.93,9.26,9.26,0,0,1,3.32-1c.12,0,.3.06.37-.14Z"/><path d="M196.9,35.39c-.21.07-.15.28-.17.42a6.43,6.43,0,0,1-7.46,5,9.32,9.32,0,0,1-2.17-.63c-.92-.39-1.37-.23-1.91.62a.32.32,0,0,0-.07.1c-.09.33-.33.37-.62.33s-.21-.34-.21-.53V23.22a6.77,6.77,0,0,0-.17-1.65A1.86,1.86,0,0,0,182.36,20c-.16,0-.41.1-.44-.2s.23-.26.43-.3c1.28-.17,2.56-.32,3.83-.54.46-.07.5.06.5.46V29a5.24,5.24,0,0,1,6.07-1.49,5.79,5.79,0,0,1,4,4.81c0,.09,0,.16.11.18C196.9,33.51,196.9,34.45,196.9,35.39Zm-10.23-1.53a16.07,16.07,0,0,0,.41,4.27,2.87,2.87,0,0,0,3.36,2.27l.22-.05a3.74,3.74,0,0,0,2.45-1.9,8.63,8.63,0,0,0,.89-6.29,6,6,0,0,0-2.22-3.84,2.86,2.86,0,0,0-4,.41l-.19.25a3.81,3.81,0,0,0-.63,1.51,13.43,13.43,0,0,0-.26,3.38Z"/><path d="M76.92,37.28V34.51c0-.14-.11-.36.15-.39s.3.15.34.34a12.92,12.92,0,0,0,1.35,3.34c1.08,1.71,2.51,2.88,4.68,2.68a4,4,0,0,0,3.67-4.3q0-.14,0-.29A4.84,4.84,0,0,0,84.59,32c-1.3-.74-2.62-1.42-3.93-2.15a5.28,5.28,0,0,1-2.93-3.73,5.9,5.9,0,0,1,1.9-5.67,5.57,5.57,0,0,1,5.85-1.11c.64.21,1.26.49,1.9.71s1,.23,1.24-.46a.26.26,0,0,1,.3-.21h0c.2,0,.14.23.14.36,0,1.82.06,3.64.09,5.46,0,.14.07.3-.17.3s-.23-.1-.28-.26c-.15-.53-.32-1.06-.49-1.58a7.58,7.58,0,0,0-1.85-3.08,3.79,3.79,0,0,0-5.32-.09,3.68,3.68,0,0,0,.12,5.2l.14.13a11.69,11.69,0,0,0,3.2,1.9,14,14,0,0,1,4,2.5A6,6,0,0,1,90,36.72a5.93,5.93,0,0,1-5,4.21,9.27,9.27,0,0,1-5.28-.68c-.36-.15-.71-.31-1.08-.44a1,1,0,0,0-1.28.39c-.09.14-.17.3-.37.25s-.14-.27-.14-.42V37.26Z"/><path class="cls-1" d="M118.5,40.55h-8.62c-.2,0-.53.15-.55-.18s.32-.21.5-.27.28,0,.43-.06a2.72,2.72,0,0,0,2.22-2.73c0-.38.06-.78.06-1.17V22.85A2.74,2.74,0,0,0,110,20h-.08c-.18,0-.49,0-.48-.25s.32-.18.49-.18h8.86c.16,0,.41-.11.46.16s-.17.25-.33.26c-2.35.22-2.82,1.64-2.83,3.32,0,4.26-.16,8.53.07,12.79a3.75,3.75,0,0,0,3.6,3.9h.23a11.79,11.79,0,0,0,2.94-.11A5.07,5.07,0,0,0,127,36.37c.21-.59.34-1.22.53-1.82,0-.14,0-.37.26-.34s.21.25.21.42c0,1.85-.11,3.69-.15,5.53,0,.46-.27.42-.57.42C124.27,40.54,121.38,40.55,118.5,40.55Z"/><path d="M97.48,40.8c-3.25,0-5.59-1.62-6.35-4.44a7.13,7.13,0,0,1,4.27-8.71,7.41,7.41,0,0,1,5,0,3.31,3.31,0,0,1,1.38.9,1.42,1.42,0,0,1,.37,1.53,1,1,0,0,1-1,.7,1.37,1.37,0,0,1-1.3-.86,5.15,5.15,0,0,1-.32-.86,1.89,1.89,0,0,0-2.6-1.32,3.48,3.48,0,0,0-2.1,1.69,8.13,8.13,0,0,0-.44,7.88A4.53,4.53,0,0,0,98,40.1a3.29,3.29,0,0,0,3.67-2c.07-.16.06-.5.36-.38s.06.36,0,.52a4,4,0,0,1-3.8,2.61A4.57,4.57,0,0,0,97.48,40.8Z"/><path class="cls-1" d="M132.9,33v4.8c0,1.6.37,1.91,1.77,2.31.16,0,.43,0,.38.3s-.3.16-.47.16h-5.91c-.15,0-.41.12-.44-.17s.21-.23.34-.25c1.33-.14,1.77-.89,1.85-2.19.12-2.15.09-4.31,0-6.45a12.23,12.23,0,0,0-.1-1.65,1.78,1.78,0,0,0-1.62-1.66c-.15,0-.37,0-.37-.2s.22-.2.37-.21c1.19-.16,2.4-.3,3.59-.47.43-.06.52.09.52.49V33C132.87,33,132.89,33,132.9,33Z"/><path d="M106.72,32.79v5c0,1.46.39,1.91,1.78,2.31.16,0,.43,0,.37.3s-.3.15-.46.15H102.5c-.16,0-.42.11-.42-.2s.22-.21.37-.25c1.34-.33,1.7-.69,1.8-2.08a59.89,59.89,0,0,0,0-7.86c-.07-1.28-.52-1.72-1.75-2-.14,0-.3,0-.27-.23s.15-.16.27-.17c1.28-.16,2.56-.31,3.84-.49.44-.06.34.2.34.43v5.11Z"/><path d="M105.47,21.86a1.46,1.46,0,0,1,1.45,1.43,1.48,1.48,0,0,1-1.5,1.46h0A1.44,1.44,0,0,1,104,23.3a1.42,1.42,0,0,1,1.4-1.44Z"/><path class="cls-1" d="M130.2,23.31a1.47,1.47,0,1,1,1.5,1.48,1.45,1.45,0,0,1-1.5-1.4S130.2,23.34,130.2,23.31Z"/><path d="M161.52,40.55h-8.86c-.14,0-.3,0-.31-.18s.12-.22.27-.23a6.77,6.77,0,0,0,.85-.14,2.54,2.54,0,0,0,2-2.18,9.22,9.22,0,0,0,.14-1.65V23.38a7.4,7.4,0,0,0-.14-1.28,2.58,2.58,0,0,0-2.23-2.1,1.49,1.49,0,0,1-.55-.07c-.18-.07-.36,0-.33-.25s.21-.15.33-.16h9.17c.12,0,.31-.07.34.15s-.16.23-.32.26a7.7,7.7,0,0,0-.9.17,2.5,2.5,0,0,0-1.86,2.07,10.07,10.07,0,0,0-.15,2V34.88a12.14,12.14,0,0,0,.14,1.77A3.49,3.49,0,0,0,162,39.79a9.31,9.31,0,0,0,4.5-.15,5,5,0,0,0,3.37-3.31c.21-.58.34-1.18.5-1.77,0-.18,0-.46.32-.42s.17.28.16.43c0,1.82-.12,3.64-.16,5.46,0,.46-.23.47-.58.47C167.31,40.54,164.42,40.55,161.52,40.55Z"/><path d="M178.75,39a5,5,0,0,1-4.15,1.75,5.17,5.17,0,0,1-1.14-.18,2.84,2.84,0,0,1-2.24-2.47,3.12,3.12,0,0,1,1.66-3.1,14.31,14.31,0,0,1,2.9-1,7.1,7.1,0,0,0,2-.79,1.7,1.7,0,0,0,.8-1,4.94,4.94,0,0,0-.32-3.53,2.14,2.14,0,0,0-2-1.14,2,2,0,0,0-1.83,1.3c-.11.27-.23.53-.34.79a1.25,1.25,0,0,1-2.31-.14,1.19,1.19,0,0,1,.48-1.35,5.5,5.5,0,0,1,2.65-.91,8.28,8.28,0,0,1,4.33.54,2.62,2.62,0,0,1,1.92,2.81v7a4.56,4.56,0,0,0,.11,1.16,1.18,1.18,0,0,0,.89,1,1.28,1.28,0,0,0,1.39-.41l.16-.18c.1-.12.2-.22.36-.1s0,.22,0,.33a2.14,2.14,0,0,1-1.27,1.18,3.15,3.15,0,0,1-3.8-1.22A2.13,2.13,0,0,1,178.75,39Zm0-6c-1.12.91-2.35,1.38-3.41,2.13a3.34,3.34,0,0,0-1.42,2.34A2.48,2.48,0,0,0,175,40a2.28,2.28,0,0,0,2.55-.48,3.33,3.33,0,0,0,.94-1.62A21.59,21.59,0,0,0,178.75,33Z"/></g><g id="FrontBG"><polygon class="cls-2" points="208.36 16.76 208.36 41.16 229.5 53.37 250.63 41.16 250.63 16.76 229.5 4.56 208.36 16.76"/></g><g id="frame"><path class="cls-1" d="M229.5,3,207,16V42l22.5,13L252,42V16ZM250.63,39.1h-1.45V33.53h-5.57v5.58H238V33.54h-5.57v5.57H226.9V33.54h-5.57v5.57h-5.61V33.54h-5.57v5.57h-1.8V16.76L229.5,4.55l21.14,12.21V39.1Z"/></g><g id="auk"><path d="M225.63,23.71l-.14,0h0l-.21.14-.7.17-.09,0-.21.08-.12.74L224,25l.08.29L224,26l-.65-.07-.37-.23.29-1.28.1-.65.12-.12v-.21l.21-1.28,0-.2.07-.22v-.18l.31-1.4.18-.22-.12-.16.08-.42.09-.44.1-.65.86,0,.18.08v.37l0,.08,0,.1.34,1.59-.08.18.13.09.5,2.52v.14l.26,1,.1.65-.07.08.16.17.12.44-.77.25h-.13l-.18-.09-.13-1.32,0-.29.08-.1-.09-.07-.08-.34Zm-1.07-1.29h0l-.12.67v.08l.68-.21.29-.08-.21-1.12,0-.55,0-.18-.16-1.11-.21,1.28-.1.05.05.17Z"/><path d="M228,22.76l-.08-1.13v-.74l.08-.22-.05-.33-.07-1.68.13-.39.94,0v.93l0,.34-.1.38v.18l.1.23-.08.39v.74l0,.78-.08,1.23.08,1.23v.16L229,25h.08l.34-.13.86-.37,0-.68,0-1.33-.07-1.28v-.86l0-1.32,0-.74h1l.07.51,0,.56-.12.07.1.12-.08.68,0,.57v.14l-.1.18.1.1.05.3,0,2.32.07,1.23.14.81-1,.17-.08-.56,0-.08-.8.4-.34.18h-.65l-.63-.55V24.9l0-.5.14-.18-.07-.1Z"/><path d="M233.4,18.2l.39.13-.1,2.58,0,.5v.31l0-.08.16-.4.18-.29.42-1,.18-.44.29-.29,0-.26.33-.76.64.25.33.25-.3.55-.64,1.06,0,.05,0,0-.76,1.43.05.08.61,1.41.37.81.35.6-.05.14.14,0,.3.68-.76.42h-.26l-.3-.77L234.43,24l.05-.13-.35-.57v0l-.42-.86v1.71l0,.5v.63l0,.2v.53l-.55,0h-.55V24.86h0v0l.18-.42-.13-.14,0-.17V24l.07-2.26-.09-.56-.05-1.32,0-.83-.12-.74Z"/><path d="M224.57,45.78l-.33.74-.17.47-.09.26.44,0,.53-.05.12.12.13-.14.35,0,.23.18,0,.74-.33.09L224,48.07l-.59,0h-.29l-.14-.67.2-.47,1.06-2.06.23-.59.42-.86.08-.29-.35-.43v-.08l-.35-.27-.16.12-.21.2-.1.13-.33.47-.48-.2-.23-.39.59-.55h.14v-.12l.38-.37.29-.34.57.08.39.51.26.38.47.51v.39l-.72,1.57L225,45l-.17.21-.2.08.05.12Z"/><path d="M228.2,41.4h.26l.7,1.64v.16l.13.1.38.74h0l.31.59,0,.38-.29.52-.34.8-.33.52-.05.2-.44,1.11-.81.09-.1-.27-.08-.21-.44-1.07h0L226.7,46l-.44-1,0-.46.26-.53.33-.64H227v-.26l.42-.89.12-.26.17-.53Zm-.09,5.73.07-.16.27-.53h.12l0-.16.2-.47h0l.38-.81,0-.12,0-.08-.35-.77.08-.14h-.14l-.63-1.47-.05.14-.2.38v.08l-.6,1.2v.07l-.17.38.48,1.17V46l.17.16Zm-.29-2.86.33-.17.3.35.13.25V45l-.16.17,0,.08-.08.17-.34.17-.27-.42-.1-.2v-.25l.14-.2Z"/><path d="M231.44,43.9V42.79l-.25.14-.56.53-.22-.3-.26-.44.2-.18.21-.13.42-.35.14.07.08-.26.37-.37.12-.09.61.26,0,.83-.08,2.56.09,2.27-.1.08.16.1v.2l0,.37-.34.08h-.6v-.51l.12-1.81c0-.26,0-.48-.05-.74v-.3l0-.39.16-.1-.17-.1Z"/><path d="M234.26,45.1,234,45l-.38-.38-.46-.39-.1-.12-.17-.14,0-.56.4-.6.26-.14v-.16l.22-.34.51-.76H235l.46.63,1,1.11v.53l-.42.76-.26.47-.18.37-.1.26-.37.85-.17.44-.26.26,0,.25-.42.91-.83-.42.14-.27.51-.91.13-.39.1-.09V46.1l.46-.9L235,45l-.1-.14.3-.69.17-.3.16-.34-.08-.08-.23-.26,0-.14h-.12l-.47-.56-.08-.08-.42.59-.22.22-.1.22-.09.16.37.35v.08l.25.21.29.22Z"/></g><g id="Ren"><path d="M217.68,24.26l0,2.41.07,2.22.07.2,0,1.84-.89.35-1.46-.13.13-3.52.33-.86-.2-.29v-.86l-.09-2.6,0-1.15.18-.44-.12-4.24-.09-1.9,1.75-.7,3.52,3.07.13.55a2.26,2.26,0,0,0,.4-.09l1.07,1-.16,1.33-1,1.24-.7.85-.38.47-.63.85c.16.31.42.69.55,1v.38a4.59,4.59,0,0,1,.47.53l.89,1.51v.29l.13.07.31.64v0l.4.85.73.78,0,.64-1.8,1-.53-.86L220,28.78l0-.38-.26-.13-.82-1.55-.2-.51-.87-1.83Zm0-1.13.16-.09,1.11-1.37c.31-.38.85-1.07,1.13-1.46l.25-.31-.44-.55-.16-.12-2-2,0,1.71v.22l-.18.42.09.4,0,.13,0,.25.09,2Z"/><path d="M239.47,24l0,2.41.07,2.22.07.2,0,1.84-.89.35-1.46-.13.13-3.52.33-.86-.2-.29V25.4l-.09-2.6,0-1.15.18-.44L237.5,17l-.09-1.9,1.75-.7,3.52,3.07.13.55a2.26,2.26,0,0,0,.4-.09l1.07,1-.16,1.33-1,1.24-.7.85-.38.47-.63.85c.16.31.42.69.55,1v.38a4.59,4.59,0,0,1,.47.53L243.3,27v.29l.13.07.31.64v0l.4.85.73.78,0,.64-1.8,1-.53-.86-.78-1.77,0-.38-.26-.13-.82-1.55-.2-.51-.89-1.8Zm0-1.12.16-.09,1.11-1.37c.31-.38.85-1.07,1.13-1.46l.25-.31-.44-.55-.16-.12-2-2,0,1.71v.22l-.18.42.09.4,0,.13,0,.25.09,2Z"/></g><g id="_68158dc0-7541-4710-9a16-d392248d7526" data-name="68158dc0-7541-4710-9a16-d392248d7526"><path id="_9857a123-237b-4256-b902-032d0b005c4a" data-name="9857a123-237b-4256-b902-032d0b005c4a" class="cls-1" d="M42.85,19.82h0a.55.55,0,0,0-.49-.3h-.45a.3.3,0,0,0-.27.44l.75,1.49.68,1.17a7.37,7.37,0,0,0,2.13,2.3L49.65,28a5.55,5.55,0,0,1,1.51,1.59l1.45,2.33.21-1.88L51.65,28a4.34,4.34,0,0,0-1.37-1.48l-4.81-3.22L45,22.86a8.4,8.4,0,0,1-1.84-2.42l-.31-.62"/><path id="_5918269d-1406-4678-9de9-13a5c04a7d53" data-name="5918269d-1406-4678-9de9-13a5c04a7d53" class="cls-1" d="M45.48,37.24h0l-1.6-1.47-1-2.36,0-.91-.47,1.62.26,1a4.63,4.63,0,0,0,2,2.74l4.21,2.74a2.55,2.55,0,0,0,1.39.41h.17a.43.43,0,0,0,.21-.8l-5.19-3"/><path id="_86044cec-69b9-4e3e-870a-14d536c2eda6" data-name="86044cec-69b9-4e3e-870a-14d536c2eda6" class="cls-3" d="M52.51,22.7h0l0,0a.66.66,0,0,1,0,.5l-.18.59a.23.23,0,0,1-.39.07l-2.4-3.09A.49.49,0,0,1,50,20l.75,0a.65.65,0,0,1,.54.35l1.21,2.29"/><path id="_57e59c5d-422d-4196-9c69-54dd0ea4dfd6" data-name="57e59c5d-422d-4196-9c69-54dd0ea4dfd6" class="cls-1" d="M51.2,21.1h0a.34.34,0,0,1-.33.5l-3.52-.36h-.07l-3.94.4a.34.34,0,0,1-.34-.19l-.42-.87A.34.34,0,0,1,43,20.1l4.23.83h.1l3.3-.37a.47.47,0,0,1,.47.25l.15.29"/><path id="_5006d2cf-28d9-45f5-b58a-2366599e8293" data-name="5006d2cf-28d9-45f5-b58a-2366599e8293" class="cls-1" d="M52.28,23.43h0a.34.34,0,0,1,0,.14h0a.34.34,0,0,1-.31.37H52L49,23.63H49l-3.74.31a.34.34,0,0,1-.26-.09l-.33-.3A.34.34,0,0,1,44.9,23l4,.35H49l2.46-.56A.53.53,0,0,1,52,23l.26.43"/><path id="ce17e4f0-5c4a-4d52-b3d5-bd805c5cef8e" class="cls-1" d="M47.75,25.41l2,.34a.34.34,0,0,0,.17,0l.83-.3a.34.34,0,0,1,.43.43l0,0a.34.34,0,0,1-.35.23l-.91-.07-.14,0-1.07.38a.34.34,0,0,1-.35-.08l-.73-.74a.13.13,0,0,1,.12-.23"/><path id="_2e12d1e7-5436-46d1-829f-8c0050182807" data-name="2e12d1e7-5436-46d1-829f-8c0050182807" class="cls-1" d="M43.41,35.69h0a.34.34,0,0,0,.38.23l2.1-.4H46l1.55.08a.34.34,0,0,0,.32-.19l.05-.11a.34.34,0,0,0-.38-.48L46,35.2h-.13l-2.42-.36a.21.21,0,0,0-.23.27l.19.58"/><path id="c1edccc0-60aa-4e2b-80cb-c0b45dfc38eb" class="cls-1" d="M50.53,28.09l-.53.26a.34.34,0,0,1-.15,0l-2.15,0a.34.34,0,0,0-.33.26l-.11.49a.34.34,0,0,0,.44.4l2.24-.79a.34.34,0,0,1,.18,0l.55.11a.34.34,0,0,0,.35-.51l0-.08a.34.34,0,0,0-.43-.13"/><path id="_33ef8bd3-f4ad-4f7d-9575-a39fba21f2b4" data-name="33ef8bd3-f4ad-4f7d-9575-a39fba21f2b4" class="cls-1" d="M52.32,30.53h0a.34.34,0,0,1-.2.43L52,31l-2.68-.09h-.08l-4.37.86a.34.34,0,0,1-.35-.52l.57-.87a.34.34,0,0,1,.32-.15l3.81.42h.1l2.55-.48a.34.34,0,0,1,.38.22l.06.16"/><path id="ddf43d28-54ab-4d6c-81e6-ccba34f4cff9" class="cls-1" d="M48.73,39.47h0a.34.34,0,0,1-.22.61l-2.32-.17H46.1l-2.53.36a.34.34,0,0,1-.33-.51l.3-.48a.34.34,0,0,1,.37-.15l2.16.57a.34.34,0,0,0,.17,0l2.09-.35a.47.47,0,0,1,.35.08l.06,0"/><path id="_194d1b18-4474-423a-a1fa-0a1aac02fca0" data-name="194d1b18-4474-423a-a1fa-0a1aac02fca0" class="cls-1" d="M51.22,32.15l-.65,1.3a.34.34,0,0,1-.34.19l-3.54-.38H46.6l-3.45.55a.34.34,0,0,1-.35-.5L43,33a.34.34,0,0,1,.31-.17L46.6,33h.08l4.53-.84h0"/><path id="bbcf203d-caa6-48ed-aaf7-a5b3c9601449" class="cls-1" d="M51.88,24.17l.73-1.11,0,1.67a.84.84,0,0,1-.18.49l-.76,1a9.2,9.2,0,0,1-1.95,1.87l-4.5,3.19a4.59,4.59,0,0,0-.77.69,24.48,24.48,0,0,0-1.93,2.17c.06-.31.08-.48.08-.48a5.65,5.65,0,0,1,1.13-2.58l.37-.48a4.76,4.76,0,0,1,1-1l4.42-3.06a6.91,6.91,0,0,0,1-.82l.64-.65a5.82,5.82,0,0,0,.74-.91h0"/><path id="d789a99d-81b3-48b2-8066-3ba13134a05b" class="cls-1" d="M48.93,33.79l-3,2.05a9,9,0,0,0-2.41,2.48l-1.68,2.57a.17.17,0,0,0,.05.24l.09,0h.78a.55.55,0,0,0,.47-.27l.4-.68a10.07,10.07,0,0,1,2.81-3L49.54,35a17.25,17.25,0,0,0,2.33-2l.5-.51a1.35,1.35,0,0,0,.38-.89l.06-1.53h0a4,4,0,0,1-.87,1.28l-.13.13a3.34,3.34,0,0,1-.3.26l-2.59,2"/><path id="_9695af23-f556-42a9-a490-0f111d8cf73d" data-name="9695af23-f556-42a9-a490-0f111d8cf73d" class="cls-4" d="M5.5,18.62v22.9h4.92V28.28l6.45,13.23h5.85V18.62H17.8v13.2L11.3,18.62Z"/><path id="ad40f32b-ce80-4e49-88cc-4e2f7cd45508" class="cls-4" d="M30,31.54v6h3.16a4.7,4.7,0,0,0,3-.77,2.83,2.83,0,0,0,1-2.35q0-2.85-4.07-2.85H30Zm0-3.85h2.82a5.15,5.15,0,0,0,2.86-.61,2.29,2.29,0,0,0,.88-2,2,2,0,0,0-1-1.89,6.16,6.16,0,0,0-3-.57H30v5.09Zm-4.85-9.07h7.12q4.87,0,7.07,1.39a4.83,4.83,0,0,1,2.2,4.41,5.56,5.56,0,0,1-1,3.37A3.85,3.85,0,0,1,38,29.36v.16a5.06,5.06,0,0,1,3.14,1.82,5.86,5.86,0,0,1,1,3.54,5.83,5.83,0,0,1-2.26,4.89,9.79,9.79,0,0,1-6.15,1.75H25.15V18.62"/><path id="_00582248-cd45-4501-9bb0-dce65b6a69ad" data-name="00582248-cd45-4501-9bb0-dce65b6a69ad" class="cls-4" d="M67.74,35a5.71,5.71,0,0,1-2.23,4.76,9.89,9.89,0,0,1-6.21,1.74,14.9,14.9,0,0,1-6.48-1.34V35.78a27,27,0,0,0,3.92,1.42,11.89,11.89,0,0,0,2.94.41,4.26,4.26,0,0,0,2.45-.6A2,2,0,0,0,63,35.24a1.92,1.92,0,0,0-.38-1.17,4.17,4.17,0,0,0-1.1-1,28.8,28.8,0,0,0-3-1.51,14.13,14.13,0,0,1-3.15-1.85,7,7,0,0,1-1.68-2.06,5.76,5.76,0,0,1-.63-2.75,5.7,5.7,0,0,1,2.06-4.66,8.71,8.71,0,0,1,5.69-1.69,9.49,9.49,0,0,1,3,.46,28.32,28.32,0,0,1,3,.92l.07,4.49a12.76,12.76,0,0,0-3.6-1.71,8.68,8.68,0,0,0-2.53-.22,3.17,3.17,0,0,0-2.11.63,2,2,0,0,0-.74,1.63,2,2,0,0,0,.3,1.09,3.23,3.23,0,0,0,.95.89,29.74,29.74,0,0,0,3.08,1.56,12.25,12.25,0,0,1,4.4,3A5.73,5.73,0,0,1,67.74,35"/></g></g></svg>