<?xml version="1.0" encoding="UTF-8" standalone="no"?>
<!-- Created with Inkscape (http://www.inkscape.org/) -->

<svg
   xmlns:dc="http://purl.org/dc/elements/1.1/"
   xmlns:cc="http://creativecommons.org/ns#"
   xmlns:rdf="http://www.w3.org/1999/02/22-rdf-syntax-ns#"
   xmlns:svg="http://www.w3.org/2000/svg"
   xmlns="http://www.w3.org/2000/svg"
   xmlns:sodipodi="http://sodipodi.sourceforge.net/DTD/sodipodi-0.dtd"
   xmlns:inkscape="http://www.inkscape.org/namespaces/inkscape"
   viewBox="0 0 71.999998 15"
   version="1.1"
   id="svg4199"
   inkscape:version="0.92.4 (33fec40, 2019-01-16)"
   sodipodi:docname="nbis_scilifelab_blue.svg">
  <defs
     id="defs4193">
    <style
       id="style4201">.\32 226caa0-a43a-463c-ac19-505be9071bda{fill:#0093bd;}.\30 a78d09d-8942-46e0-9133-810706dcba4d{fill:#1e1e1f;}.c5a6771d-69ba-41c4-8c22-fddb6155eed6{fill:#fefefe;}.fa12389a-81b6-4cea-bc13-fc4b1bf97c8b{fill:#069;}.dbd49e1c-2503-4bed-9fd0-db7105b782d2{fill:#f47d20;}</style>
  </defs>
  <sodipodi:namedview
     id="base"
     pagecolor="#ffffff"
     bordercolor="#666666"
     borderopacity="1.0"
     inkscape:pageopacity="0.0"
     inkscape:pageshadow="2"
     inkscape:zoom="2.8"
     inkscape:cx="174.50121"
     inkscape:cy="43.626237"
     inkscape:document-units="mm"
     inkscape:current-layer="layer1"
     showgrid="false"
     inkscape:window-width="1295"
     inkscape:window-height="1242"
     inkscape:window-x="2994"
     inkscape:window-y="68"
     inkscape:window-maximized="0" />
  <metadata
     id="metadata4196">
    <rdf:RDF>
      <cc:Work
         rdf:about="">
        <dc:format>image/svg+xml</dc:format>
        <dc:type
           rdf:resource="http://purl.org/dc/dcmitype/StillImage" />
        <dc:title></dc:title>
      </cc:Work>
    </rdf:RDF>
  </metadata>
  <g
     inkscape:label="Layer 1"
     inkscape:groupmode="layer"
     id="layer1"
     transform="translate(0,-282)">
    <g
       id="g4291"
       transform="matrix(0.04530552,0,0,0.04530552,-0.5725162,281.95248)">
      <g
         data-name="Layer 1 Image"
         id="952a4f8f-eab4-4260-85cd-55bd375373a3">
        <path
           id="path4207"
           d="m 1195,12.7 c 3.2,2.1 7.1,0.4 10.7,2.7 -4.9,5.1 -10,10.3 -15,15.5 -1.4,1.5 -2.8,0.4 -4.1,0 -6.6,-1.9 -13.2,-3.5 -20.1,-2.9 -13.5,1.2 -22.1,9 -27.5,20.9 -4.6,10.1 -6.3,21 -7.6,31.9 -1.2,9.6 -2,19.2 -3.2,28.8 -0.5,4.2 0.2,5.8 5,5.7 15.1,-0.2 30.3,0.1 45.5,0.3 1.8,0 3.5,0.2 6,0.4 -5.5,6.5 -8.1,13.6 -10.1,21 -0.9,3.5 0,4.3 3.5,4.3 15.3,-0.2 30.6,-0.2 46,-0.4 1.3,0 2.9,0.6 3.3,-1.8 2.2,-13.7 -11.1,-29.9 -25.1,-30.1 -1,0 -2,0 -3,0.1 -1,0.1 -2.1,0.1 -2.2,-1.3 -0.1,-1.2 0.7,-1.6 1.8,-1.9 21.9,-6.2 48.9,15.3 47.5,37.7 -0.2,3.8 -2.7,2.7 -4.6,2.7 -21,0.1 -42,0.3 -63,-0.1 -5.2,-0.1 -6.5,1.7 -6.7,6.4 -0.5,16.1 3.4,30.8 14.1,43 10.9,12.4 27.5,16.1 42.8,10.1 7.7,-3 12.9,-8.6 16,-16.2 0.5,-1.2 0.6,-3.5 2.7,-2.7 2.3,0.8 0.7,2.6 0.3,3.8 a 33.74,33.74 0 0 1 -17.6,21.3 c -19.5,10 -48.6,5.7 -64.4,-9.4 -17.3,-16.6 -21.5,-45.4 -9.8,-68.4 0.6,-1.2 1.2,-2.3 1.8,-3.4 -0.8,-1.7 -2.1,-1.1 -3.2,-1.1 -8.3,-0.1 -16.7,0.1 -25,-0.1 -2.9,-0.1 -4,0.7 -4.3,3.7 -1.8,16.9 -3.6,33.8 -5.7,50.6 -2.9,24.3 -2.7,48.9 -8,72.9 -5,22.6 -14.7,42.7 -33.6,57.4 a 68.54,68.54 0 0 1 -31.2,13.7 c -0.8,0.1 -1.7,0 -2.1,1 h -17 c -2.5,-0.8 -5,-1.6 -8.3,-2.7 5.3,-4.8 10.2,-9.3 15.2,-13.8 1.5,-1.4 3.1,-0.2 4.7,0.2 6.5,1.7 13,3 19.7,2 13,-1.9 21.5,-9.8 27.4,-21 5.5,-10.5 7.8,-21.9 9,-33.6 4.2,-41.7 8.2,-83.5 12.4,-125.2 0.4,-4.1 -0.7,-5.1 -4.6,-4.9 -5.3,0.3 -10.6,0.1 -17.3,0.1 5.1,-5.3 9.3,-9.8 13.6,-14.2 1.3,-1.3 3.2,-0.8 4.8,-0.6 4.4,0.6 6,-1 6.3,-5.6 a 136.78,136.78 0 0 1 8,-39 c 7.2,-20.4 18.4,-37.6 38,-48.2 a 75.26,75.26 0 0 1 27,-8.4 c 1,-0.1 2.4,0.5 3,-1.1 2.9,-0.1 5.5,-0.1 8.2,-0.1 z"
           class="2226caa0-a43a-463c-ac19-505be9071bda"
           inkscape:connector-curvature="0"
           style="fill:#0093bd" />
        <path
           id="path4209"
           d="m 1600,172.7 c -1.7,0.6 -1.2,2.3 -1.4,3.4 -7.3,28.5 -31.3,44.4 -60.6,40.3 a 75.7,75.7 0 0 1 -17.6,-5.1 c -7.5,-3.2 -11.1,-1.9 -15.5,5 -0.2,0.3 -0.5,0.5 -0.6,0.8 -0.7,2.7 -2.7,3 -5,2.7 -3,-0.4 -1.7,-2.8 -1.7,-4.3 q -0.15,-70.95 -0.1,-142 a 55,55 0 0 0 -1.4,-13.4 c -2,-7.7 -6.4,-11.5 -14.3,-12.5 -1.3,-0.2 -3.3,0.8 -3.6,-1.6 -0.3,-2.7 1.9,-2.1 3.5,-2.4 10.4,-1.4 20.8,-2.6 31.1,-4.4 3.7,-0.6 4.1,0.5 4.1,3.7 -0.1,24.2 0,48.3 0,72.5 v 5.7 c 14.2,-16.2 31.4,-18 49.3,-12.1 18.5,6.1 29.5,19.7 32.9,39.1 0.1,0.7 0.2,1.3 0.9,1.5 0,7.8 0,15.4 0,23.1 z m -83.1,-12.4 a 130.62,130.62 0 0 0 3.3,34.7 c 3.3,13.8 15.2,21.1 29.1,18 9.1,-2 15.3,-7.7 19.9,-15.4 9.6,-16 10.6,-33.3 7.2,-51.1 -2.4,-12.4 -7.7,-23.4 -18,-31.2 -11.5,-8.7 -25.8,-6.3 -34.2,5.4 a 31,31 0 0 0 -5.1,12.3 c -2.1,9 -2.4,18.2 -2.2,27.3 z"
           class="0a78d09d-8942-46e0-9133-810706dcba4d"
           inkscape:connector-curvature="0"
           style="fill:#1e1e1f" />
        <path
           id="path4211"
           d="m 625,188 v -22.5 c 0,-1.1 -0.9,-2.9 1.2,-3.2 2.1,-0.3 2.4,1.2 2.8,2.8 2.7,9.4 5.8,18.8 11,27.1 8.8,13.9 20.4,23.4 38,21.8 19,-1.7 32,-18.2 29.6,-37.3 -1.7,-13.8 -8,-24.5 -20.2,-31.4 -10.6,-6 -21.3,-11.5 -31.9,-17.5 -12,-6.8 -21.4,-16 -23.8,-30.3 -3.1,-18.1 1.8,-33.7 15.4,-46.1 13.8,-12.6 30,-14.7 47.5,-9 5.2,1.7 10.2,4 15.4,5.8 4.2,1.5 8.3,1.9 10.1,-3.7 a 2.09,2.09 0 0 1 2.7,-1.6 c 1.6,0.4 1.1,1.9 1.1,2.9 0.3,14.8 0.5,29.6 0.7,44.4 0,1.1 0.6,2.4 -1.4,2.4 -1.5,0 -1.9,-0.8 -2.3,-2.1 -1.2,-4.3 -2.6,-8.6 -4,-12.8 -3.2,-9.4 -7.8,-18 -15,-25 -12.3,-12 -32.1,-12.3 -43.2,-0.7 -11.8,12.2 -10.9,30.8 2.1,43.3 7.5,7.2 16.9,11 26,15.4 11.7,5.7 23.6,10.9 32.9,20.3 14.9,15 18,33 11.7,52.5 -6.3,19.5 -20.3,30.7 -40.4,34.2 -14.8,2.6 -29.1,0.3 -42.9,-5.5 -2.9,-1.2 -5.8,-2.5 -8.8,-3.6 -4.3,-1.6 -7.9,-0.7 -10.4,3.2 -0.7,1.1 -1.4,2.4 -3,2 -1.9,-0.5 -1.1,-2.2 -1.1,-3.4 -0.1,-7.5 0,-15 0,-22.5 0.1,0.1 0.1,0.1 0.2,0.1 z"
           class="0a78d09d-8942-46e0-9133-810706dcba4d"
           inkscape:connector-curvature="0"
           style="fill:#1e1e1f" />
        <path
           id="path4213"
           d="m 962.9,214.6 h -67.5 a 20.85,20.85 0 0 1 -2.5,0 c -1.6,-0.4 -4.3,1.2 -4.5,-1.5 -0.3,-2.9 2.6,-1.7 4.1,-2.2 1.1,-0.3 2.3,-0.2 3.5,-0.5 10.9,-2.4 17,-9.9 18,-22.2 0.3,-3.1 0.5,-6.3 0.5,-9.5 q -0.15,-52.2 -0.3,-104.5 c 0,-1.2 -0.1,-2.3 -0.2,-3.5 -1,-14.4 -7.5,-21.4 -21.7,-23.5 -1.5,-0.2 -4,0.4 -3.9,-2 0.1,-2.6 2.6,-1.5 4,-1.5 q 36,-0.15 72,0 c 1.3,0 3.3,-0.9 3.7,1.3 0.4,2 -1.4,2 -2.7,2.1 -19.1,1.8 -22.9,13.3 -23,27 -0.3,34.6 -1.3,69.3 0.6,103.9 1.1,19.5 11.7,30.1 31.1,31.7 a 95.78,95.78 0 0 0 23.9,-0.9 c 16.6,-3 27.5,-12.7 33.2,-28.3 1.7,-4.8 2.8,-9.9 4.3,-14.8 0.3,-1.1 0,-3 2.1,-2.8 2.4,0.1 1.7,2 1.7,3.4 -0.4,15 -0.9,30 -1.2,44.9 -0.1,3.7 -2.2,3.4 -4.6,3.4 -23.7,-0.1 -47.2,0 -70.6,0 z"
           class="2226caa0-a43a-463c-ac19-505be9071bda"
           inkscape:connector-curvature="0"
           style="fill:#0093bd" />
        <path
           id="path4215"
           d="m 792.1,216.6 c -26.4,0.2 -45.4,-13.2 -51.6,-36.1 -8.2,-30 7.1,-61.5 34.7,-70.8 13.4,-4.6 27.1,-4.9 40.6,-0.1 a 26.94,26.94 0 0 1 11.2,7.3 c 3.3,3.6 4.7,7.7 3,12.4 -1.3,3.6 -4.1,5.5 -8,5.7 -5.3,0.3 -8.3,-2.9 -10.6,-7 a 41.89,41.89 0 0 1 -2.6,-7 c -3.5,-10.1 -10.7,-13.8 -21.1,-10.7 A 28.28,28.28 0 0 0 770.6,124 c -11.5,20.7 -14.2,42.1 -3.6,64 5.9,12.2 15,21.2 29.3,22.9 14,1.7 23.6,-3.9 29.8,-16.6 0.6,-1.3 0.5,-4.1 2.9,-3.1 2.4,1 0.5,2.9 0,4.2 -5.4,14.1 -16.5,20.2 -30.9,21.2 -2,0.1 -4,0 -6,0 z"
           class="0a78d09d-8942-46e0-9133-810706dcba4d"
           inkscape:connector-curvature="0"
           style="fill:#1e1e1f" />
        <path
           id="path4217"
           d="m 1079.9,153.1 c 0,13 -0.1,26 0,39 0.1,11.8 3,15.5 14.4,18.8 1.3,0.4 3.5,0.2 3.1,2.4 -0.4,2.2 -2.4,1.3 -3.8,1.3 q -24,0.15 -48,0 c -1.2,0 -3.3,1 -3.6,-1.4 -0.2,-2 1.7,-1.9 2.8,-2 10.8,-1.1 14.4,-7.2 15,-17.8 1,-17.5 0.7,-35 0.4,-52.4 a 99.41,99.41 0 0 0 -0.8,-13.4 c -1.1,-7.5 -5.3,-12.4 -13.2,-13.5 -1.2,-0.2 -3,0.4 -3,-1.6 0,-2 1.8,-1.6 3,-1.7 9.7,-1.3 19.5,-2.4 29.2,-3.8 3.5,-0.5 4.2,0.7 4.2,4 -0.1,14.2 -0.1,28.3 -0.1,42.5 0.2,-0.4 0.3,-0.4 0.4,-0.4 z"
           class="2226caa0-a43a-463c-ac19-505be9071bda"
           inkscape:connector-curvature="0"
           style="fill:#0093bd" />
        <path
           id="path4219"
           d="m 867.2,151.5 c 0,13.5 -0.1,27 0,40.5 0.2,11.9 3.2,15.5 14.5,18.8 1.3,0.4 3.5,0.2 3,2.4 -0.5,2.2 -2.4,1.2 -3.7,1.2 q -24,0.15 -48,0 c -1.3,0 -3.4,0.9 -3.4,-1.6 -0.1,-1.9 1.8,-1.7 3,-2 10.9,-2.7 13.8,-5.6 14.6,-16.9 a 486.63,486.63 0 0 0 0.1,-63.9 c -0.6,-10.4 -4.2,-14 -14.2,-16.3 -1.1,-0.3 -2.4,0 -2.2,-1.9 0.1,-1.5 1.2,-1.3 2.2,-1.4 10.4,-1.3 20.8,-2.5 31.2,-4 3.6,-0.5 2.8,1.6 2.8,3.5 v 41.5 c 0,0.1 0,0.1 0.1,0.1 z"
           class="0a78d09d-8942-46e0-9133-810706dcba4d"
           inkscape:connector-curvature="0"
           style="fill:#1e1e1f" />
        <path
           id="path4221"
           d="M 857,62.7 A 11.85,11.85 0 0 1 868.8,74.3 12.06,12.06 0 0 1 856.6,86.2 11.74,11.74 0 0 1 844.9,74.4 11.56,11.56 0 0 1 857,62.7 Z"
           class="0a78d09d-8942-46e0-9133-810706dcba4d"
           inkscape:connector-curvature="0"
           style="fill:#1e1e1f" />
        <path
           id="path4223"
           d="m 1058,74.5 a 11.900945,11.900945 0 0 1 23.8,-0.3 12,12 0 0 1 -11.6,12 11.76,11.76 0 0 1 -12.2,-11.7 z"
           class="2226caa0-a43a-463c-ac19-505be9071bda"
           inkscape:connector-curvature="0"
           style="fill:#0093bd" />
        <path
           id="path4225"
           d="m 1312.5,214.6 h -72 c -1.1,0 -2.4,0.3 -2.5,-1.5 -0.1,-1.8 1,-1.8 2.2,-1.9 a 55,55 0 0 0 6.9,-1.1 c 9.1,-2.5 14.4,-8.4 16,-17.7 a 75,75 0 0 0 1.1,-13.4 c 0,-34.6 -0.1,-69.3 -0.2,-103.9 a 60.16,60.16 0 0 0 -1.1,-10.4 c -1.8,-8.9 -8.6,-15.2 -17.7,-16.7 -1.5,-0.2 -3,-0.3 -4.5,-0.6 -1.2,-0.2 -2.9,0.1 -2.7,-2 0.2,-1.9 1.7,-1.2 2.7,-1.3 h 74.5 c 1,0 2.5,-0.6 2.8,1.2 0.3,2.1 -1.3,1.9 -2.6,2.1 a 62.56,62.56 0 0 0 -7.3,1.4 c -8.6,2.4 -13.3,8.3 -15.1,16.8 a 81.82,81.82 0 0 0 -1.2,16.4 c 0,29 0,58 0.2,87 a 98.67,98.67 0 0 0 1.1,14.4 c 2,13.8 10.1,22.6 23.7,25.5 a 75.62,75.62 0 0 0 36.6,-1.2 c 13.9,-4 22.5,-13.7 27.4,-26.9 1.7,-4.7 2.8,-9.6 4.1,-14.4 0.4,-1.5 0,-3.7 2.6,-3.4 2.4,0.3 1.4,2.3 1.3,3.5 -0.4,14.8 -1,29.6 -1.3,44.4 -0.1,3.7 -1.9,3.8 -4.7,3.8 -23.3,-0.2 -46.8,-0.1 -70.3,-0.1 z"
           class="0a78d09d-8942-46e0-9133-810706dcba4d"
           inkscape:connector-curvature="0"
           style="fill:#1e1e1f" />
        <path
           id="path4227"
           d="m 1452.5,202.4 c -9.4,9.8 -20.3,15.2 -33.7,14.2 a 42,42 0 0 1 -9.3,-1.5 c -10.6,-2.9 -17,-10.1 -18.2,-20.1 -1.3,-10.7 3.8,-20.5 13.5,-25.8 7.4,-4 15.7,-5.4 23.6,-7.7 5.6,-1.6 11.2,-3.2 16.1,-6.4 3,-2 5.7,-4.5 6.5,-8 2.3,-9.8 2.2,-19.6 -2.6,-28.7 -3.4,-6.4 -9.4,-9.4 -16.5,-9.3 -7.1,0.1 -12.1,4 -14.9,10.6 -0.9,2.2 -1.9,4.3 -2.8,6.4 -1.9,4.4 -5.4,6.2 -10,5.8 -4.4,-0.3 -7.6,-2.7 -8.8,-6.9 -1.3,-4.4 0.2,-8.2 3.9,-11 6.3,-4.8 13.9,-6.3 21.5,-7.4 a 67.24,67.24 0 0 1 35.2,4.4 c 11.3,4.5 15.5,10.6 15.6,22.8 l 0.3,57 a 37,37 0 0 0 0.9,9.4 c 1,4 3,7.2 7.2,8.1 4.2,0.9 8.3,0.4 11.3,-3.3 0.4,-0.5 0.9,-1 1.3,-1.5 0.8,-1 1.6,-1.8 2.9,-0.8 1,0.8 0.4,1.8 0,2.7 a 17.42,17.42 0 0 1 -10.3,9.6 c -11.8,4.2 -23.6,0.5 -30.7,-9.8 a 17.34,17.34 0 0 1 -2,-2.8 z m 0,-48.9 c -9.1,7.4 -19.1,11.2 -27.7,17.3 a 27.17,27.17 0 0 0 -11.5,19 c -1.2,8.3 2.5,16.8 8.8,20.3 6,3.3 14.5,1.7 20.7,-3.9 a 27.08,27.08 0 0 0 7.6,-13.2 c 3.3,-12.5 1.7,-25.4 2.1,-39.5 z"
           class="0a78d09d-8942-46e0-9133-810706dcba4d"
           inkscape:connector-curvature="0"
           style="fill:#1e1e1f" />
      </g>
      <g
         data-name="Layer 2"
         id="daacb624-44f8-4ed1-a5e0-1cad65a363bd">
        <g
           data-name="g7130"
           id="68158dc0-7541-4710-9a16-d392248d7526">
          <path
             d="m 309.42,50.12 v 0 a 4.3,4.3 0 0 0 -3.83,-2.36 h -3.5 A 2.37,2.37 0 0 0 300,51.2 l 5.85,11.67 5.31,9.13 a 57.67,57.67 0 0 0 16.66,18 l 34.79,24.34 a 43.43,43.43 0 0 1 11.83,12.41 L 385.79,145 387.45,130.3 378.3,114 a 33.94,33.94 0 0 0 -10.75,-11.62 l -37.67,-25.2 -3.65,-3.33 A 65.78,65.78 0 0 1 311.85,54.94 l -2.44,-4.82"
             class="fa12389a-81b6-4cea-bc13-fc4b1bf97c8b"
             data-name="path7134"
             id="9857a123-237b-4256-b902-032d0b005c4a"
             inkscape:connector-curvature="0"
             style="fill:#006699" />
          <path
             d="m 330,186.48 v 0 L 317.47,175 l -7.55,-18.49 0.27,-7.09 -3.67,12.67 2,7.75 a 36.22,36.22 0 0 0 15.35,21.41 l 32.92,21.42 a 19.94,19.94 0 0 0 10.87,3.23 H 369 a 3.33,3.33 0 0 0 1.65,-6.23 L 330,186.48"
             class="fa12389a-81b6-4cea-bc13-fc4b1bf97c8b"
             data-name="path7136"
             id="5918269d-1406-4678-9de9-13a5c04a7d53"
             inkscape:connector-curvature="0"
             style="fill:#006699" />
          <path
             d="m 385,72.62 v 0 l 0.14,0.27 a 5.15,5.15 0 0 1 0.38,3.93 l -1.43,4.63 A 1.79,1.79 0 0 1 381,82 L 362.2,57.83 a 3.82,3.82 0 0 1 3.21,-6.15 l 5.85,0.3 a 5.11,5.11 0 0 1 4.25,2.71 L 385,72.62"
             class="fa12389a-81b6-4cea-bc13-fc4b1bf97c8b"
             data-name="path7138"
             id="86044cec-69b9-4e3e-870a-14d536c2eda6"
             inkscape:connector-curvature="0"
             style="fill:#006699" />
          <path
             d="m 374.78,60.11 v 0 A 2.65,2.65 0 0 1 372.17,64 l -27.55,-2.84 a 2.59,2.59 0 0 0 -0.54,0 L 313.2,64.3 a 2.65,2.65 0 0 1 -2.66,-1.49 L 307.29,56 a 2.65,2.65 0 0 1 2.9,-3.74 l 33.11,6.47 a 2.66,2.66 0 0 0 0.8,0 l 25.83,-2.86 a 3.68,3.68 0 0 1 3.66,1.93 l 1.21,2.27"
             class="dbd49e1c-2503-4bed-9fd0-db7105b782d2"
             data-name="path7140"
             id="57e59c5d-422d-4196-9c69-54dd0ea4dfd6"
             inkscape:connector-curvature="0"
             style="fill:#f47d20" />
          <path
             d="m 383.22,78.32 v 0 a 2.64,2.64 0 0 1 0.37,1.13 v 0 a 2.65,2.65 0 0 1 -2.91,2.87 l -22.92,-2.38 a 2.66,2.66 0 0 0 -0.49,0 L 328,82.35 a 2.64,2.64 0 0 1 -2,-0.69 l -2.58,-2.36 a 2.65,2.65 0 0 1 2,-4.59 l 31.2,2.77 a 2.63,2.63 0 0 0 0.82,-0.06 L 376.69,73 a 4.17,4.17 0 0 1 4.49,1.91 l 2,3.37"
             class="dbd49e1c-2503-4bed-9fd0-db7105b782d2"
             data-name="path7142"
             id="5006d2cf-28d9-45f5-b58a-2366599e8293"
             inkscape:connector-curvature="0"
             style="fill:#f47d20" />
          <path
             d="m 347.72,93.81 15.79,2.64 a 2.65,2.65 0 0 0 1.34,-0.12 L 371.33,94 a 2.65,2.65 0 0 1 3.4,3.36 l -0.13,0.36 a 2.65,2.65 0 0 1 -2.71,1.77 l -7.14,-0.56 a 2.64,2.64 0 0 0 -1.09,0.14 l -8.39,3 a 2.65,2.65 0 0 1 -2.77,-0.64 l -5.71,-5.79 a 1.05,1.05 0 0 1 0.92,-1.77"
             class="dbd49e1c-2503-4bed-9fd0-db7105b782d2"
             data-name="path7144"
             id="ce17e4f0-5c4a-4d52-b3d5-bd805c5cef8e"
             inkscape:connector-curvature="0"
             style="fill:#f47d20" />
          <path
             d="m 313.75,174.29 v 0 a 2.65,2.65 0 0 0 3,1.78 l 16.4,-3.17 a 2.66,2.66 0 0 1 0.65,0 l 12.16,0.66 a 2.65,2.65 0 0 0 2.5,-1.45 l 0.43,-0.85 a 2.65,2.65 0 0 0 -3,-3.77 l -11.91,3 a 2.64,2.64 0 0 1 -1,0 L 314,167.64 a 1.62,1.62 0 0 0 -1.78,2.11 l 1.48,4.54"
             class="dbd49e1c-2503-4bed-9fd0-db7105b782d2"
             data-name="path7146"
             id="2e12d1e7-5436-46d1-829f-8c0050182807"
             inkscape:connector-curvature="0"
             style="fill:#f47d20" />
          <path
             d="m 369.51,114.8 -4.11,2 a 2.64,2.64 0 0 1 -1.19,0.27 l -16.81,-0.23 a 2.65,2.65 0 0 0 -2.61,2 l -0.9,3.84 a 2.65,2.65 0 0 0 3.45,3.11 l 17.56,-6.15 a 2.65,2.65 0 0 1 1.38,-0.1 l 4.29,0.83 a 2.65,2.65 0 0 0 2.74,-4 l -0.38,-0.6 a 2.65,2.65 0 0 0 -3.39,-1"
             class="dbd49e1c-2503-4bed-9fd0-db7105b782d2"
             data-name="path7148"
             id="c1edccc0-60aa-4e2b-80cb-c0b45dfc38eb"
             inkscape:connector-curvature="0"
             style="fill:#f47d20" />
          <path
             d="m 383.51,133.89 v 0 a 2.65,2.65 0 0 1 -2.58,3.56 l -21,-0.73 a 2.62,2.62 0 0 0 -0.6,0 l -34.17,6.71 a 2.65,2.65 0 0 1 -2.72,-4.05 l 4.5,-6.84 a 2.65,2.65 0 0 1 2.5,-1.18 l 29.8,3.28 a 2.64,2.64 0 0 0 0.78,0 l 20,-3.77 a 2.69,2.69 0 0 1 3,1.71 l 0.47,1.28"
             class="dbd49e1c-2503-4bed-9fd0-db7105b782d2"
             data-name="path7150"
             id="33ef8bd3-f4ad-4f7d-9575-a39fba21f2b4"
             inkscape:connector-curvature="0"
             style="fill:#f47d20" />
          <path
             d="m 355.38,203.94 v 0 a 2.65,2.65 0 0 1 -1.75,4.81 l -18.17,-1.3 h -0.64 L 315,210.27 a 2.65,2.65 0 0 1 -2.62,-4 l 2.33,-3.78 a 2.65,2.65 0 0 1 2.93,-1.17 l 16.89,4.45 a 2.66,2.66 0 0 0 1.3,0 L 352.16,203 a 3.7,3.7 0 0 1 2.74,0.61 l 0.48,0.33"
             class="dbd49e1c-2503-4bed-9fd0-db7105b782d2"
             data-name="path7152"
             id="ddf43d28-54ab-4d6c-81e6-ccba34f4cff9"
             inkscape:connector-curvature="0"
             style="fill:#f47d20" />
          <path
             d="m 374.89,146.64 -5.09,10.18 a 2.65,2.65 0 0 1 -2.65,1.45 l -27.7,-2.94 a 2.63,2.63 0 0 0 -0.7,0 l -27,4.32 a 2.65,2.65 0 0 1 -2.71,-3.94 l 1.6,-2.75 a 2.65,2.65 0 0 1 2.46,-1.31 l 25.64,1.64 a 2.61,2.61 0 0 0 0.65,0 l 35.46,-6.61 v 0"
             class="dbd49e1c-2503-4bed-9fd0-db7105b782d2"
             data-name="path7154"
             id="194d1b18-4474-423a-a1fa-0a1aac02fca0"
             inkscape:connector-curvature="0"
             style="fill:#f47d20" />
          <path
             d="m 380.08,84.15 5.72,-8.72 -0.31,13.07 a 6.55,6.55 0 0 1 -1.37,3.85 l -5.94,7.65 a 72,72 0 0 1 -15.26,14.66 l -35.25,25 a 35.9,35.9 0 0 0 -6,5.38 c 0,0 -12.15,12.33 -15.14,17 0.47,-2.41 0.6,-3.72 0.6,-3.72 A 44.21,44.21 0 0 1 316,138.13 l 2.93,-3.74 a 37.29,37.29 0 0 1 8.14,-7.67 l 34.57,-23.92 a 54.12,54.12 0 0 0 7.64,-6.41 l 5,-5.09 a 45.57,45.57 0 0 0 5.78,-7.16 v 0"
             class="2226caa0-a43a-463c-ac19-505be9071bda"
             data-name="path7156"
             id="bbcf203d-caa6-48ed-aaf7-a5b3c9601449"
             inkscape:connector-curvature="0"
             style="fill:#0093bd" />
          <path
             d="m 357,159.42 -23.2,16.05 a 70.15,70.15 0 0 0 -18.9,19.44 L 301.78,215 a 1.35,1.35 0 0 0 1.13,2.08 H 309 a 4.29,4.29 0 0 0 3.7,-2.08 l 3.16,-5.29 a 78.86,78.86 0 0 1 22,-23.86 l 23.92,-17 a 135,135 0 0 0 18.26,-15.6 l 3.92,-4 a 10.58,10.58 0 0 0 3,-7 l 0.45,-12 v 0.06 a 31.46,31.46 0 0 1 -6.83,10 l -1,1 a 26.17,26.17 0 0 1 -2.33,2.07 L 357,159.42"
             class="2226caa0-a43a-463c-ac19-505be9071bda"
             data-name="path7158"
             id="d789a99d-81b3-48b2-8066-3ba13134a05b"
             inkscape:connector-curvature="0"
             style="fill:#0093bd" />
          <path
             d="M 17,40.66 V 219.89 H 55.53 V 116.34 L 106,219.89 h 45.79 V 40.66 H 113.25 V 144 L 62.44,40.66 Z"
             class="2226caa0-a43a-463c-ac19-505be9071bda"
             data-name="path7160"
             id="9695af23-f556-42a9-a490-0f111d8cf73d"
             inkscape:connector-curvature="0"
             style="fill:#0093bd" />
          <path
             d="m 208.83,141.8 v 46.71 h 24.76 q 15.69,0 23.17,-6 7.48,-6 7.48,-18.39 0,-22.31 -31.87,-22.31 h -23.54 z m 0,-30.16 h 22.07 q 15.45,0 22.37,-4.78 6.92,-4.78 6.92,-15.86 0,-10.3 -7.54,-14.77 -7.54,-4.47 -23.84,-4.43 h -20 v 39.84 z m -38,-71 h 55.77 q 38.13,0 55.35,10.85 17.22,10.85 17.23,34.51 0,16.06 -7.54,26.36 a 30.11,30.11 0 0 1 -20,12.38 V 126 q 17,3.8 24.58,14.22 7.58,10.42 7.54,27.71 0,24.52 -17.71,38.25 -17.71,13.73 -48.12,13.73 H 170.82 V 40.66"
             class="2226caa0-a43a-463c-ac19-505be9071bda"
             data-name="path7162"
             id="ad40f32b-ce80-4e49-88cc-4e2f7cd45508"
             inkscape:connector-curvature="0"
             style="fill:#0093bd" />
          <path
             d="m 504.21,169 q 0,23.66 -17.47,37.27 -17.47,13.61 -48.61,13.62 -28.69,0 -50.75,-10.51 V 175 q 18.14,7.89 30.71,11.11 a 93.07,93.07 0 0 0 23,3.23 q 12.5,0 19.18,-4.66 6.68,-4.66 6.68,-13.86 a 15,15 0 0 0 -2.94,-9.14 32.66,32.66 0 0 0 -8.64,-7.71 q -5.7,-3.7 -23.23,-11.83 -16.43,-7.53 -24.64,-14.46 a 54.45,54.45 0 0 1 -13.12,-16.13 q -4.9,-9.2 -4.9,-21.5 0,-23.18 16.12,-36.44 16.12,-13.26 44.56,-13.26 c 9.32,0 14.77,1.27 23.17,3.64 9.35,2.64 14.14,3.72 23.15,7.18 L 497,86.29 A 99.85,99.85 0 0 0 468.79,72.9 c -6.5,-2 -13.78,-1.75 -19.82,-1.75 q -10.79,0 -16.55,4.9 a 16,16 0 0 0 -5.76,12.78 15.5,15.5 0 0 0 2.33,8.54 25.28,25.28 0 0 0 7.42,7 q 5.09,3.4 24.09,12.24 25.13,11.71 34.45,23.48 9.32,11.77 9.26,28.91"
             class="2226caa0-a43a-463c-ac19-505be9071bda"
             data-name="path7164"
             id="00582248-cd45-4501-9bb0-dce65b6a69ad"
             inkscape:connector-curvature="0"
             style="fill:#0093bd" />
        </g>
      </g>
    </g>
  </g>
</svg>
